<?xml version="1.0" encoding="ISO8859-1"?>
<svg xmlns="http://www.w3.org/2000/svg" xmlns:xlink="http://www.w3.org/1999/xlink" width="288px" height="252px" viewBox="0 0 288 252" version="1.1" id="Fig:dens">
  <metadata xmlns:gridsvg="http://www.stat.auckland.ac.nz/~paul/R/gridSVG/">
    <gridsvg:generator name="gridSVG" version="1.7-1" time="2020-04-28 20:58:06"/>
    <gridsvg:argument name="name" value="C:/Users/usuario/Documents/IMPORTANTE/Master_bioinformatica_bioestadistica/Analisi de dades omiques/pec1/resultados/ArrayQualityMetrics_normalized_data_report/dens.svg"/>
    <gridsvg:argument name="exportCoords" value="none"/>
    <gridsvg:argument name="exportMappings" value="none"/>
    <gridsvg:argument name="exportJS" value="none"/>
    <gridsvg:argument name="res" value="72"/>
    <gridsvg:argument name="prefix" value="Fig:dens"/>
    <gridsvg:argument name="addClasses" value="FALSE"/>
    <gridsvg:argument name="indent" value="TRUE"/>
    <gridsvg:argument name="htmlWrapper" value="FALSE"/>
    <gridsvg:argument name="usePaths" value="none"/>
    <gridsvg:argument name="uniqueNames" value="TRUE"/>
    <gridsvg:separator name="id.sep" value="."/>
    <gridsvg:separator name="gPath.sep" value="::"/>
    <gridsvg:separator name="vpPath.sep" value="::"/>
  </metadata>
  <g transform="translate(0, 252) scale(1, -1)">
    <g id="Fig:densgridSVG" fill="none" stroke="rgb(0,0,0)" stroke-dasharray="none" stroke-width="0.75" font-size="12" font-family="Helvetica, Arial, FreeSans, Liberation Sans, Nimbus Sans L, sans-serif" opacity="1" stroke-linecap="round" stroke-linejoin="round" stroke-miterlimit="10" stroke-opacity="1" fill-opacity="0" font-weight="normal" font-style="normal">
      <g id="Fig:densplot_01.background.1">
        <rect id="Fig:densplot_01.background.1.1" x="0" y="0" width="288" height="252" transform="" fill="none" stroke="none" stroke-opacity="0" fill-opacity="0"/>
      </g>
      <g id="Fig:densplot_01.toplevel.vp.1" font-size="12">
        <g id="Fig:densplot_01.ylab.vp.1">
          <g id="Fig:densplot_01.ylab.1">
            <g id="Fig:densplot_01.ylab.1.1" transform="translate(10.31, 138.09)" stroke-width="0.1">
              <g id="Fig:densplot_01.ylab.1.1.scale" transform="scale(1, -1)">
                <text x="0" y="0" id="Fig:densplot_01.ylab.1.1.text" transform="rotate(-90)" text-anchor="middle" opacity="1" stroke="rgb(0,0,0)" fill="rgb(0,0,0)" stroke-opacity="1" fill-opacity="1" font-size="12" font-weight="normal" font-style="normal">
                  <tspan id="Fig:densplot_01.ylab.1.1.tspan.1" dy="4.31" x="0">Density</tspan>
                </text>
              </g>
            </g>
          </g>
        </g>
        <g id="Fig:densplot_01.figure.vp.1"/>
        <defs>
          <clipPath id="Fig:densplot_01.panel.1.1.vp.1.clipPath">
            <rect x="44.8" y="42.19" width="231.2" height="191.81" fill="none" stroke="none"/>
          </clipPath>
        </defs>
        <g id="Fig:densplot_01.panel.1.1.vp.1" clip-path="url(#Fig:densplot_01.panel.1.1.vp.1.clipPath)"/>
        <g id="Fig:densplot_01.strip.1.1.off.vp.1"/>
        <g id="Fig:densplot_01.strip.left.1.1.off.vp.1">
          <g id="Fig:densplot_01.ticks.left.panel.1.1.1">
            <polyline id="Fig:densplot_01.ticks.left.panel.1.1.1.1" points="44.8,53.96 39.13,53.96" stroke="rgb(0,0,0)" opacity="1" stroke-dasharray="none" stroke-width="0.75" stroke-opacity="1" fill="none"/>
            <polyline id="Fig:densplot_01.ticks.left.panel.1.1.1.2" points="44.8,82.35 39.13,82.35" stroke="rgb(0,0,0)" opacity="1" stroke-dasharray="none" stroke-width="0.75" stroke-opacity="1" fill="none"/>
            <polyline id="Fig:densplot_01.ticks.left.panel.1.1.1.3" points="44.8,110.74 39.13,110.74" stroke="rgb(0,0,0)" opacity="1" stroke-dasharray="none" stroke-width="0.75" stroke-opacity="1" fill="none"/>
            <polyline id="Fig:densplot_01.ticks.left.panel.1.1.1.4" points="44.8,139.13 39.13,139.13" stroke="rgb(0,0,0)" opacity="1" stroke-dasharray="none" stroke-width="0.75" stroke-opacity="1" fill="none"/>
            <polyline id="Fig:densplot_01.ticks.left.panel.1.1.1.5" points="44.8,167.51 39.13,167.51" stroke="rgb(0,0,0)" opacity="1" stroke-dasharray="none" stroke-width="0.75" stroke-opacity="1" fill="none"/>
            <polyline id="Fig:densplot_01.ticks.left.panel.1.1.1.6" points="44.8,195.9 39.13,195.9" stroke="rgb(0,0,0)" opacity="1" stroke-dasharray="none" stroke-width="0.75" stroke-opacity="1" fill="none"/>
            <polyline id="Fig:densplot_01.ticks.left.panel.1.1.1.7" points="44.8,224.29 39.13,224.29" stroke="rgb(0,0,0)" opacity="1" stroke-dasharray="none" stroke-width="0.75" stroke-opacity="1" fill="none"/>
          </g>
          <g id="Fig:densplot_01.ticklabels.left.panel.1.1.1">
            <g id="Fig:densplot_01.ticklabels.left.panel.1.1.1.1" transform="translate(33.47, 53.96)" stroke-width="0.1">
              <g id="Fig:densplot_01.ticklabels.left.panel.1.1.1.1.scale" transform="scale(1, -1)">
                <text x="0" y="0" id="Fig:densplot_01.ticklabels.left.panel.1.1.1.1.text" transform="rotate(-90)" text-anchor="middle" stroke="rgb(0,0,0)" opacity="1" fill="rgb(0,0,0)" stroke-opacity="1" fill-opacity="1" font-size="9.6" font-weight="normal" font-style="normal">
                  <tspan id="Fig:densplot_01.ticklabels.left.panel.1.1.1.1.tspan.1" dy="0" x="0">0.0</tspan>
                </text>
              </g>
            </g>
            <g id="Fig:densplot_01.ticklabels.left.panel.1.1.1.2" transform="translate(33.47, 82.35)" stroke-width="0.1">
              <g id="Fig:densplot_01.ticklabels.left.panel.1.1.1.2.scale" transform="scale(1, -1)">
                <text x="0" y="0" id="Fig:densplot_01.ticklabels.left.panel.1.1.1.2.text" transform="rotate(-90)" text-anchor="middle" stroke="rgb(0,0,0)" opacity="1" fill="rgb(0,0,0)" stroke-opacity="1" fill-opacity="1" font-size="9.6" font-weight="normal" font-style="normal">
                  <tspan id="Fig:densplot_01.ticklabels.left.panel.1.1.1.2.tspan.1" dy="0" x="0">0.2</tspan>
                </text>
              </g>
            </g>
            <g id="Fig:densplot_01.ticklabels.left.panel.1.1.1.3" transform="translate(33.47, 110.74)" stroke-width="0.1">
              <g id="Fig:densplot_01.ticklabels.left.panel.1.1.1.3.scale" transform="scale(1, -1)">
                <text x="0" y="0" id="Fig:densplot_01.ticklabels.left.panel.1.1.1.3.text" transform="rotate(-90)" text-anchor="middle" stroke="rgb(0,0,0)" opacity="1" fill="rgb(0,0,0)" stroke-opacity="1" fill-opacity="1" font-size="9.6" font-weight="normal" font-style="normal">
                  <tspan id="Fig:densplot_01.ticklabels.left.panel.1.1.1.3.tspan.1" dy="0" x="0">0.4</tspan>
                </text>
              </g>
            </g>
            <g id="Fig:densplot_01.ticklabels.left.panel.1.1.1.4" transform="translate(33.47, 139.13)" stroke-width="0.1">
              <g id="Fig:densplot_01.ticklabels.left.panel.1.1.1.4.scale" transform="scale(1, -1)">
                <text x="0" y="0" id="Fig:densplot_01.ticklabels.left.panel.1.1.1.4.text" transform="rotate(-90)" text-anchor="middle" stroke="rgb(0,0,0)" opacity="1" fill="rgb(0,0,0)" stroke-opacity="1" fill-opacity="1" font-size="9.6" font-weight="normal" font-style="normal">
                  <tspan id="Fig:densplot_01.ticklabels.left.panel.1.1.1.4.tspan.1" dy="0" x="0">0.6</tspan>
                </text>
              </g>
            </g>
            <g id="Fig:densplot_01.ticklabels.left.panel.1.1.1.5" transform="translate(33.47, 167.51)" stroke-width="0.1">
              <g id="Fig:densplot_01.ticklabels.left.panel.1.1.1.5.scale" transform="scale(1, -1)">
                <text x="0" y="0" id="Fig:densplot_01.ticklabels.left.panel.1.1.1.5.text" transform="rotate(-90)" text-anchor="middle" stroke="rgb(0,0,0)" opacity="1" fill="rgb(0,0,0)" stroke-opacity="1" fill-opacity="1" font-size="9.6" font-weight="normal" font-style="normal">
                  <tspan id="Fig:densplot_01.ticklabels.left.panel.1.1.1.5.tspan.1" dy="0" x="0">0.8</tspan>
                </text>
              </g>
            </g>
            <g id="Fig:densplot_01.ticklabels.left.panel.1.1.1.6" transform="translate(33.47, 195.9)" stroke-width="0.1">
              <g id="Fig:densplot_01.ticklabels.left.panel.1.1.1.6.scale" transform="scale(1, -1)">
                <text x="0" y="0" id="Fig:densplot_01.ticklabels.left.panel.1.1.1.6.text" transform="rotate(-90)" text-anchor="middle" stroke="rgb(0,0,0)" opacity="1" fill="rgb(0,0,0)" stroke-opacity="1" fill-opacity="1" font-size="9.6" font-weight="normal" font-style="normal">
                  <tspan id="Fig:densplot_01.ticklabels.left.panel.1.1.1.6.tspan.1" dy="0" x="0">1.0</tspan>
                </text>
              </g>
            </g>
            <g id="Fig:densplot_01.ticklabels.left.panel.1.1.1.7" transform="translate(33.47, 224.29)" stroke-width="0.1">
              <g id="Fig:densplot_01.ticklabels.left.panel.1.1.1.7.scale" transform="scale(1, -1)">
                <text x="0" y="0" id="Fig:densplot_01.ticklabels.left.panel.1.1.1.7.text" transform="rotate(-90)" text-anchor="middle" stroke="rgb(0,0,0)" opacity="1" fill="rgb(0,0,0)" stroke-opacity="1" fill-opacity="1" font-size="9.6" font-weight="normal" font-style="normal">
                  <tspan id="Fig:densplot_01.ticklabels.left.panel.1.1.1.7.tspan.1" dy="0" x="0">1.2</tspan>
                </text>
              </g>
            </g>
          </g>
        </g>
        <g id="Fig:densplot_01.panel.1.1.off.vp.1">
          <g id="Fig:densplot_01.ticks.bottom.panel.1.1.1">
            <polyline id="Fig:densplot_01.ticks.bottom.panel.1.1.1.1" points="56.08,42.19 56.08,36.52" stroke="rgb(0,0,0)" opacity="1" stroke-dasharray="none" stroke-width="0.75" stroke-opacity="1" fill="none"/>
            <polyline id="Fig:densplot_01.ticks.bottom.panel.1.1.1.2" points="100.4,42.19 100.4,36.52" stroke="rgb(0,0,0)" opacity="1" stroke-dasharray="none" stroke-width="0.75" stroke-opacity="1" fill="none"/>
            <polyline id="Fig:densplot_01.ticks.bottom.panel.1.1.1.3" points="144.72,42.19 144.72,36.52" stroke="rgb(0,0,0)" opacity="1" stroke-dasharray="none" stroke-width="0.75" stroke-opacity="1" fill="none"/>
            <polyline id="Fig:densplot_01.ticks.bottom.panel.1.1.1.4" points="189.03,42.19 189.03,36.52" stroke="rgb(0,0,0)" opacity="1" stroke-dasharray="none" stroke-width="0.75" stroke-opacity="1" fill="none"/>
            <polyline id="Fig:densplot_01.ticks.bottom.panel.1.1.1.5" points="233.35,42.19 233.35,36.52" stroke="rgb(0,0,0)" opacity="1" stroke-dasharray="none" stroke-width="0.75" stroke-opacity="1" fill="none"/>
          </g>
          <g id="Fig:densplot_01.ticklabels.bottom.panel.1.1.1">
            <g id="Fig:densplot_01.ticklabels.bottom.panel.1.1.1.1" transform="translate(56.08, 30.85)" stroke-width="0.1">
              <g id="Fig:densplot_01.ticklabels.bottom.panel.1.1.1.1.scale" transform="scale(1, -1)">
                <text x="0" y="0" id="Fig:densplot_01.ticklabels.bottom.panel.1.1.1.1.text" text-anchor="middle" stroke="rgb(0,0,0)" opacity="1" fill="rgb(0,0,0)" stroke-opacity="1" fill-opacity="1" font-size="9.6" font-weight="normal" font-style="normal">
                  <tspan id="Fig:densplot_01.ticklabels.bottom.panel.1.1.1.1.tspan.1" dy="7.18" x="0">0</tspan>
                </text>
              </g>
            </g>
            <g id="Fig:densplot_01.ticklabels.bottom.panel.1.1.1.2" transform="translate(100.4, 30.85)" stroke-width="0.1">
              <g id="Fig:densplot_01.ticklabels.bottom.panel.1.1.1.2.scale" transform="scale(1, -1)">
                <text x="0" y="0" id="Fig:densplot_01.ticklabels.bottom.panel.1.1.1.2.text" text-anchor="middle" stroke="rgb(0,0,0)" opacity="1" fill="rgb(0,0,0)" stroke-opacity="1" fill-opacity="1" font-size="9.6" font-weight="normal" font-style="normal">
                  <tspan id="Fig:densplot_01.ticklabels.bottom.panel.1.1.1.2.tspan.1" dy="7.18" x="0">1</tspan>
                </text>
              </g>
            </g>
            <g id="Fig:densplot_01.ticklabels.bottom.panel.1.1.1.3" transform="translate(144.72, 30.85)" stroke-width="0.1">
              <g id="Fig:densplot_01.ticklabels.bottom.panel.1.1.1.3.scale" transform="scale(1, -1)">
                <text x="0" y="0" id="Fig:densplot_01.ticklabels.bottom.panel.1.1.1.3.text" text-anchor="middle" stroke="rgb(0,0,0)" opacity="1" fill="rgb(0,0,0)" stroke-opacity="1" fill-opacity="1" font-size="9.6" font-weight="normal" font-style="normal">
                  <tspan id="Fig:densplot_01.ticklabels.bottom.panel.1.1.1.3.tspan.1" dy="7.18" x="0">2</tspan>
                </text>
              </g>
            </g>
            <g id="Fig:densplot_01.ticklabels.bottom.panel.1.1.1.4" transform="translate(189.03, 30.85)" stroke-width="0.1">
              <g id="Fig:densplot_01.ticklabels.bottom.panel.1.1.1.4.scale" transform="scale(1, -1)">
                <text x="0" y="0" id="Fig:densplot_01.ticklabels.bottom.panel.1.1.1.4.text" text-anchor="middle" stroke="rgb(0,0,0)" opacity="1" fill="rgb(0,0,0)" stroke-opacity="1" fill-opacity="1" font-size="9.6" font-weight="normal" font-style="normal">
                  <tspan id="Fig:densplot_01.ticklabels.bottom.panel.1.1.1.4.tspan.1" dy="7.18" x="0">3</tspan>
                </text>
              </g>
            </g>
            <g id="Fig:densplot_01.ticklabels.bottom.panel.1.1.1.5" transform="translate(233.35, 30.85)" stroke-width="0.1">
              <g id="Fig:densplot_01.ticklabels.bottom.panel.1.1.1.5.scale" transform="scale(1, -1)">
                <text x="0" y="0" id="Fig:densplot_01.ticklabels.bottom.panel.1.1.1.5.text" text-anchor="middle" stroke="rgb(0,0,0)" opacity="1" fill="rgb(0,0,0)" stroke-opacity="1" fill-opacity="1" font-size="9.6" font-weight="normal" font-style="normal">
                  <tspan id="Fig:densplot_01.ticklabels.bottom.panel.1.1.1.5.tspan.1" dy="7.18" x="0">4</tspan>
                </text>
              </g>
            </g>
          </g>
        </g>
        <defs>
          <clipPath id="Fig:densplot_01.panel.1.1.vp.2.clipPath">
            <rect x="44.8" y="42.19" width="231.2" height="191.81" fill="none" stroke="none"/>
          </clipPath>
        </defs>
        <g id="Fig:densplot_01.panel.1.1.vp.2" clip-path="url(#Fig:densplot_01.panel.1.1.vp.2.clipPath)">
          <g id="Fig:densplot_01.xyplot.lines.group.1.panel.1.1.1">
            <polyline id="Fig:densplot_01.xyplot.lines.group.1.panel.1.1.1.1" points="59.36,53.97 59.75,53.97 60.15,53.97 60.54,53.98 60.94,53.98 61.33,53.99 61.73,54 62.13,54.01 62.52,54.03 62.92,54.05 63.31,54.08 63.71,54.11 64.1,54.15 64.5,54.21 64.89,54.28 65.29,54.37 65.68,54.48 66.08,54.62 66.47,54.78 66.87,54.98 67.26,55.22 67.66,55.52 68.05,55.88 68.45,56.3 68.84,56.8 69.24,57.38 69.63,58.06 70.03,58.84 70.42,59.76 70.82,60.82 71.21,62.03 71.61,63.39 72,64.92 72.4,66.64 72.8,68.56 73.19,70.71 73.59,73.08 73.98,75.68 74.38,78.5 74.77,81.56 75.17,84.86 75.56,88.43 75.96,92.25 76.35,96.3 76.75,100.57 77.14,105.05 77.54,109.73 77.93,114.59 78.33,119.65 78.72,124.85 79.12,130.15 79.51,135.55 79.91,141.01 80.3,146.51 80.7,152.01 81.09,157.47 81.49,162.87 81.88,168.18 82.28,173.36 82.67,178.39 83.07,183.23 83.46,187.86 83.86,192.21 84.26,196.3 84.65,200.11 85.05,203.62 85.44,206.81 85.84,209.68 86.23,212.15 86.63,214.25 87.02,216 87.42,217.39 87.81,218.43 88.21,219.11 88.6,219.45 89,219.38 89.39,218.99 89.79,218.28 90.18,217.27 90.58,215.98 90.97,214.42 91.37,212.59 91.76,210.51 92.16,208.22 92.55,205.74 92.95,203.09 93.34,200.3 93.74,197.38 94.13,194.35 94.53,191.22 94.92,188.03 95.32,184.8 95.72,181.53 96.11,178.25 96.51,174.96 96.9,171.7 97.3,168.46 97.69,165.26 98.09,162.11 98.48,159.01 98.88,155.98 99.27,153.01 99.67,150.13 100.06,147.33 100.46,144.6 100.85,141.96 101.25,139.39 101.64,136.91 102.04,134.51 102.43,132.21 102.83,129.98 103.22,127.83 103.62,125.76 104.01,123.76 104.41,121.83 104.8,119.97 105.2,118.19 105.59,116.47 105.99,114.8 106.39,113.2 106.78,111.65 107.18,110.15 107.57,108.71 107.97,107.32 108.36,105.98 108.76,104.68 109.15,103.43 109.55,102.21 109.94,101.04 110.34,99.92 110.73,98.84 111.13,97.79 111.52,96.78 111.92,95.8 112.31,94.86 112.71,93.96 113.1,93.1 113.5,92.27 113.89,91.47 114.29,90.7 114.68,89.96 115.08,89.26 115.47,88.58 115.87,87.94 116.26,87.32 116.66,86.73 117.05,86.16 117.45,85.62 117.85,85.1 118.24,84.61 118.64,84.14 119.03,83.69 119.43,83.26 119.82,82.86 120.22,82.47 120.61,82.11 121.01,81.76 121.4,81.44 121.8,81.13 122.19,80.84 122.59,80.56 122.98,80.3 123.38,80.06 123.77,79.83 124.17,79.61 124.56,79.41 124.96,79.22 125.35,79.04 125.75,78.88 126.14,78.72 126.54,78.58 126.93,78.44 127.33,78.31 127.72,78.19 128.12,78.07 128.51,77.96 128.91,77.86 129.31,77.76 129.7,77.67 130.1,77.58 130.49,77.49 130.89,77.41 131.28,77.33 131.68,77.25 132.07,77.17 132.47,77.09 132.86,77.01 133.26,76.93 133.65,76.86 134.05,76.78 134.44,76.7 134.84,76.62 135.23,76.54 135.63,76.46 136.02,76.39 136.42,76.31 136.81,76.23 137.21,76.16 137.6,76.09 138,76.02 138.39,75.96 138.79,75.9 139.18,75.85 139.58,75.81 139.98,75.77 140.37,75.73 140.77,75.71 141.16,75.69 141.56,75.68 141.95,75.67 142.35,75.67 142.74,75.68 143.14,75.7 143.53,75.72 143.93,75.74 144.32,75.77 144.72,75.8 145.11,75.84 145.51,75.88 145.9,75.91 146.3,75.95 146.69,75.99 147.09,76.03 147.48,76.06 147.88,76.1 148.27,76.13 148.67,76.15 149.06,76.17 149.46,76.19 149.85,76.2 150.25,76.21 150.64,76.21 151.04,76.21 151.44,76.21 151.83,76.2 152.23,76.19 152.62,76.17 153.02,76.15 153.41,76.14 153.81,76.12 154.2,76.1 154.6,76.08 154.99,76.06 155.39,76.05 155.78,76.03 156.18,76.02 156.57,76.01 156.97,76.01 157.36,76.01 157.76,76.01 158.15,76.02 158.55,76.04 158.94,76.05 159.34,76.08 159.73,76.1 160.13,76.13 160.52,76.17 160.92,76.21 161.31,76.26 161.71,76.31 162.1,76.36 162.5,76.42 162.9,76.47 163.29,76.54 163.69,76.6 164.08,76.66 164.48,76.73 164.87,76.79 165.27,76.85 165.66,76.91 166.06,76.96 166.45,77.01 166.85,77.05 167.24,77.09 167.64,77.11 168.03,77.13 168.43,77.14 168.82,77.14 169.22,77.13 169.61,77.1 170.01,77.07 170.4,77.03 170.8,76.97 171.19,76.91 171.59,76.83 171.98,76.75 172.38,76.66 172.77,76.56 173.17,76.46 173.57,76.35 173.96,76.24 174.36,76.13 174.75,76.02 175.15,75.9 175.54,75.79 175.94,75.68 176.33,75.58 176.73,75.48 177.12,75.38 177.52,75.29 177.91,75.21 178.31,75.13 178.7,75.05 179.1,74.99 179.49,74.93 179.89,74.87 180.28,74.82 180.68,74.77 181.07,74.72 181.47,74.68 181.86,74.63 182.26,74.59 182.65,74.54 183.05,74.49 183.44,74.44 183.84,74.38 184.23,74.32 184.63,74.25 185.03,74.17 185.42,74.09 185.82,74.01 186.21,73.92 186.61,73.82 187,73.72 187.4,73.61 187.79,73.49 188.19,73.38 188.58,73.26 188.98,73.14 189.37,73.01 189.77,72.89 190.16,72.76 190.56,72.64 190.95,72.51 191.35,72.38 191.74,72.26 192.14,72.13 192.53,72.01 192.93,71.88 193.32,71.76 193.72,71.63 194.11,71.5 194.51,71.38 194.9,71.25 195.3,71.12 195.69,70.99 196.09,70.86 196.49,70.73 196.88,70.6 197.28,70.46 197.67,70.33 198.07,70.19 198.46,70.06 198.86,69.93 199.25,69.8 199.65,69.67 200.04,69.54 200.44,69.41 200.83,69.28 201.23,69.16 201.62,69.04 202.02,68.91 202.41,68.79 202.81,68.67 203.2,68.55 203.6,68.43 203.99,68.31 204.39,68.19 204.78,68.07 205.18,67.95 205.57,67.83 205.97,67.71 206.36,67.58 206.76,67.46 207.16,67.34 207.55,67.22 207.95,67.09 208.34,66.97 208.74,66.85 209.13,66.73 209.53,66.61 209.92,66.49 210.32,66.37 210.71,66.26 211.11,66.14 211.5,66.02 211.9,65.9 212.29,65.78 212.69,65.65 213.08,65.53 213.48,65.4 213.87,65.27 214.27,65.14 214.66,65.01 215.06,64.88 215.45,64.74 215.85,64.61 216.24,64.47 216.64,64.33 217.03,64.2 217.43,64.06 217.82,63.92 218.22,63.79 218.62,63.66 219.01,63.52 219.41,63.4 219.8,63.27 220.2,63.15 220.59,63.03 220.99,62.92 221.38,62.81 221.78,62.7 222.17,62.59 222.57,62.49 222.96,62.39 223.36,62.3 223.75,62.2 224.15,62.11 224.54,62.02 224.94,61.93 225.33,61.84 225.73,61.75 226.12,61.66 226.52,61.58 226.91,61.49 227.31,61.41 227.7,61.32 228.1,61.23 228.49,61.15 228.89,61.06 229.29,60.98 229.68,60.89 230.08,60.81 230.47,60.72 230.87,60.64 231.26,60.56 231.66,60.47 232.05,60.39 232.45,60.31 232.84,60.23 233.24,60.15 233.63,60.08 234.03,60 234.42,59.93 234.82,59.85 235.21,59.78 235.61,59.7 236,59.63 236.4,59.56 236.79,59.49 237.19,59.42 237.58,59.34 237.98,59.27 238.37,59.19 238.77,59.12 239.16,59.04 239.56,58.95 239.95,58.87 240.35,58.78 240.75,58.68 241.14,58.59 241.54,58.48 241.93,58.38 242.33,58.26 242.72,58.14 243.12,58.02 243.51,57.89 243.91,57.75 244.3,57.61 244.7,57.46 245.09,57.31 245.49,57.15 245.88,56.99 246.28,56.83 246.67,56.67 247.07,56.5 247.46,56.33 247.86,56.17 248.25,56 248.65,55.84 249.04,55.69 249.44,55.54 249.83,55.39 250.23,55.25 250.62,55.12 251.02,54.99 251.41,54.88 251.81,54.77 252.21,54.67 252.6,54.58 253,54.49 253.39,54.42 253.79,54.35 254.18,54.29 254.58,54.24 254.97,54.2 255.37,54.16 255.76,54.12 256.16,54.09 256.55,54.07 256.95,54.05 257.34,54.03 257.74,54.02 258.13,54.01 258.53,54 258.92,53.99 259.32,53.98 259.71,53.98 260.11,53.97 260.5,53.97 260.9,53.97 261.29,53.97" stroke-dasharray="none" stroke="rgb(31,120,180)" stroke-width="0.75" opacity="1" stroke-opacity="1" fill="none"/>
          </g>
          <g id="Fig:densplot_01.xyplot.lines.group.2.panel.1.1.1">
            <polyline id="Fig:densplot_01.xyplot.lines.group.2.panel.1.1.1.1" points="59.38,53.97 59.78,53.97 60.17,53.97 60.57,53.98 60.96,53.98 61.36,53.99 61.75,54 62.15,54.01 62.54,54.03 62.94,54.05 63.33,54.08 63.73,54.12 64.12,54.17 64.52,54.23 64.91,54.3 65.31,54.39 65.71,54.51 66.1,54.65 66.5,54.82 66.89,55.03 67.29,55.28 67.68,55.58 68.08,55.94 68.47,56.38 68.87,56.89 69.26,57.49 69.66,58.18 70.05,58.98 70.45,59.91 70.84,60.99 71.24,62.21 71.63,63.6 72.03,65.16 72.42,66.9 72.82,68.83 73.21,71 73.61,73.4 74,76.03 74.4,78.89 74.79,81.99 75.19,85.32 75.58,88.89 75.98,92.74 76.37,96.82 76.77,101.12 77.16,105.63 77.56,110.34 77.95,115.22 78.35,120.26 78.74,125.46 79.14,130.77 79.53,136.14 79.93,141.57 80.32,147.02 80.72,152.45 81.11,157.84 81.51,163.14 81.9,168.32 82.3,173.35 82.69,178.22 83.09,182.88 83.49,187.33 83.88,191.48 84.28,195.34 84.67,198.91 85.07,202.18 85.46,205.12 85.86,207.75 86.25,210.03 86.65,211.92 87.04,213.48 87.44,214.7 87.83,215.59 88.23,216.17 88.62,216.44 89.02,216.37 89.41,215.99 89.81,215.34 90.2,214.42 90.6,213.26 90.99,211.88 91.39,210.27 91.78,208.44 92.18,206.42 92.57,204.23 92.97,201.9 93.36,199.43 93.76,196.84 94.15,194.15 94.55,191.35 94.94,188.47 95.34,185.54 95.73,182.56 96.13,179.55 96.52,176.51 96.92,173.46 97.31,170.4 97.71,167.36 98.1,164.34 98.5,161.35 98.89,158.39 99.29,155.47 99.68,152.6 100.08,149.79 100.47,147.04 100.87,144.35 101.27,141.72 101.66,139.16 102.06,136.66 102.45,134.25 102.85,131.9 103.24,129.63 103.64,127.43 104.03,125.29 104.43,123.23 104.82,121.24 105.22,119.33 105.61,117.48 106.01,115.71 106.4,113.99 106.8,112.34 107.19,110.75 107.59,109.23 107.98,107.78 108.38,106.37 108.77,105.03 109.17,103.73 109.56,102.49 109.96,101.3 110.35,100.16 110.75,99.07 111.14,98.02 111.54,97.01 111.93,96.05 112.33,95.12 112.72,94.24 113.12,93.39 113.51,92.58 113.91,91.81 114.3,91.07 114.7,90.35 115.09,89.67 115.49,89.02 115.88,88.41 116.28,87.81 116.67,87.24 117.07,86.7 117.46,86.18 117.86,85.67 118.25,85.19 118.65,84.73 119.05,84.29 119.44,83.86 119.84,83.44 120.23,83.04 120.63,82.66 121.02,82.29 121.42,81.93 121.81,81.59 122.21,81.26 122.6,80.94 123,80.63 123.39,80.33 123.79,80.05 124.18,79.78 124.58,79.52 124.97,79.28 125.37,79.04 125.76,78.82 126.16,78.61 126.55,78.41 126.95,78.22 127.34,78.04 127.74,77.87 128.13,77.71 128.53,77.56 128.92,77.41 129.32,77.28 129.71,77.15 130.11,77.02 130.5,76.91 130.9,76.79 131.29,76.69 131.69,76.59 132.08,76.49 132.48,76.4 132.87,76.31 133.27,76.23 133.66,76.14 134.06,76.07 134.45,75.99 134.85,75.92 135.24,75.86 135.64,75.79 136.03,75.73 136.43,75.67 136.82,75.62 137.22,75.57 137.62,75.52 138.01,75.47 138.41,75.43 138.8,75.39 139.2,75.35 139.59,75.31 139.99,75.28 140.38,75.25 140.78,75.23 141.17,75.2 141.57,75.18 141.96,75.17 142.36,75.15 142.75,75.15 143.15,75.14 143.54,75.14 143.94,75.15 144.33,75.15 144.73,75.17 145.12,75.19 145.52,75.21 145.91,75.24 146.31,75.27 146.7,75.31 147.1,75.35 147.49,75.39 147.89,75.44 148.28,75.49 148.68,75.54 149.07,75.59 149.47,75.64 149.86,75.69 150.26,75.73 150.65,75.77 151.05,75.8 151.44,75.83 151.84,75.86 152.23,75.87 152.63,75.88 153.02,75.89 153.42,75.88 153.81,75.87 154.21,75.86 154.6,75.84 155,75.81 155.4,75.78 155.79,75.75 156.19,75.72 156.58,75.69 156.98,75.66 157.37,75.63 157.77,75.61 158.16,75.6 158.56,75.59 158.95,75.59 159.35,75.6 159.74,75.61 160.14,75.64 160.53,75.67 160.93,75.72 161.32,75.77 161.72,75.83 162.11,75.9 162.51,75.97 162.9,76.05 163.3,76.13 163.69,76.21 164.09,76.29 164.48,76.37 164.88,76.45 165.27,76.52 165.67,76.58 166.06,76.64 166.46,76.69 166.85,76.73 167.25,76.76 167.64,76.78 168.04,76.79 168.43,76.78 168.83,76.77 169.22,76.75 169.62,76.71 170.01,76.67 170.41,76.62 170.8,76.56 171.2,76.5 171.59,76.43 171.99,76.35 172.38,76.27 172.78,76.19 173.18,76.11 173.57,76.03 173.97,75.95 174.36,75.86 174.76,75.78 175.15,75.71 175.55,75.63 175.94,75.56 176.34,75.49 176.73,75.43 177.13,75.37 177.52,75.31 177.92,75.26 178.31,75.21 178.71,75.16 179.1,75.12 179.5,75.08 179.89,75.03 180.29,74.99 180.68,74.95 181.08,74.91 181.47,74.87 181.87,74.82 182.26,74.78 182.66,74.73 183.05,74.67 183.45,74.61 183.84,74.55 184.24,74.48 184.63,74.41 185.03,74.33 185.42,74.25 185.82,74.16 186.21,74.07 186.61,73.98 187,73.88 187.4,73.78 187.79,73.67 188.19,73.56 188.58,73.44 188.98,73.33 189.37,73.21 189.77,73.09 190.16,72.97 190.56,72.84 190.96,72.71 191.35,72.58 191.75,72.45 192.14,72.32 192.54,72.18 192.93,72.05 193.33,71.91 193.72,71.78 194.12,71.64 194.51,71.5 194.91,71.36 195.3,71.22 195.7,71.08 196.09,70.94 196.49,70.8 196.88,70.66 197.28,70.52 197.67,70.38 198.07,70.24 198.46,70.11 198.86,69.97 199.25,69.83 199.65,69.7 200.04,69.56 200.44,69.43 200.83,69.3 201.23,69.18 201.62,69.05 202.02,68.93 202.41,68.81 202.81,68.69 203.2,68.58 203.6,68.47 203.99,68.36 204.39,68.25 204.78,68.15 205.18,68.04 205.57,67.94 205.97,67.84 206.36,67.74 206.76,67.65 207.15,67.55 207.55,67.45 207.94,67.35 208.34,67.25 208.74,67.15 209.13,67.05 209.53,66.94 209.92,66.84 210.32,66.73 210.71,66.62 211.11,66.51 211.5,66.4 211.9,66.28 212.29,66.17 212.69,66.05 213.08,65.94 213.48,65.82 213.87,65.7 214.27,65.58 214.66,65.46 215.06,65.34 215.45,65.21 215.85,65.09 216.24,64.96 216.64,64.84 217.03,64.71 217.43,64.58 217.82,64.45 218.22,64.32 218.61,64.19 219.01,64.05 219.4,63.92 219.8,63.78 220.19,63.64 220.59,63.5 220.98,63.36 221.38,63.22 221.77,63.08 222.17,62.95 222.56,62.81 222.96,62.67 223.35,62.54 223.75,62.4 224.14,62.27 224.54,62.15 224.93,62.02 225.33,61.9 225.72,61.79 226.12,61.67 226.51,61.56 226.91,61.46 227.31,61.36 227.7,61.26 228.1,61.17 228.49,61.08 228.89,61 229.28,60.92 229.68,60.84 230.07,60.76 230.47,60.69 230.86,60.61 231.26,60.54 231.65,60.47 232.05,60.41 232.44,60.34 232.84,60.27 233.23,60.21 233.63,60.14 234.02,60.08 234.42,60.01 234.81,59.95 235.21,59.88 235.6,59.82 236,59.75 236.39,59.69 236.79,59.62 237.18,59.55 237.58,59.48 237.97,59.41 238.37,59.34 238.76,59.26 239.16,59.18 239.55,59.1 239.95,59.02 240.34,58.93 240.74,58.83 241.13,58.73 241.53,58.63 241.92,58.52 242.32,58.4 242.71,58.28 243.11,58.15 243.5,58.01 243.9,57.87 244.29,57.73 244.69,57.57 245.09,57.41 245.48,57.25 245.88,57.09 246.27,56.92 246.67,56.75 247.06,56.57 247.46,56.4 247.85,56.23 248.25,56.06 248.64,55.9 249.04,55.73 249.43,55.58 249.83,55.43 250.22,55.28 250.62,55.15 251.01,55.02 251.41,54.9 251.8,54.79 252.2,54.69 252.59,54.59 252.99,54.51 253.38,54.43 253.78,54.36 254.17,54.3 254.57,54.25 254.96,54.2 255.36,54.16 255.75,54.13 256.15,54.1 256.54,54.07 256.94,54.05 257.33,54.03 257.73,54.02 258.12,54.01 258.52,54 258.91,53.99 259.31,53.98 259.7,53.98 260.1,53.97 260.49,53.97 260.89,53.97 261.28,53.97" stroke-dasharray="none" stroke="rgb(31,120,180)" stroke-width="0.75" opacity="1" stroke-opacity="1" fill="none"/>
          </g>
          <g id="Fig:densplot_01.xyplot.lines.group.3.panel.1.1.1">
            <polyline id="Fig:densplot_01.xyplot.lines.group.3.panel.1.1.1.1" points="59.35,53.97 59.75,53.97 60.14,53.97 60.54,53.98 60.93,53.98 61.33,53.99 61.72,54 62.12,54.02 62.51,54.03 62.91,54.06 63.31,54.09 63.7,54.13 64.1,54.17 64.49,54.23 64.89,54.31 65.28,54.41 65.68,54.53 66.07,54.68 66.47,54.86 66.86,55.08 67.26,55.34 67.65,55.66 68.05,56.05 68.44,56.51 68.84,57.05 69.23,57.68 69.63,58.41 70.02,59.25 70.42,60.25 70.82,61.38 71.21,62.67 71.61,64.13 72,65.76 72.4,67.57 72.79,69.6 73.19,71.87 73.58,74.36 73.98,77.07 74.37,80.01 74.77,83.18 75.16,86.58 75.56,90.24 75.95,94.15 76.35,98.26 76.74,102.59 77.14,107.1 77.53,111.79 77.93,116.64 78.32,121.65 78.72,126.77 79.12,131.98 79.51,137.24 79.91,142.54 80.3,147.85 80.7,153.13 81.09,158.35 81.49,163.48 81.88,168.49 82.28,173.36 82.67,178.07 83.07,182.58 83.46,186.86 83.86,190.88 84.25,194.63 84.65,198.12 85.04,201.31 85.44,204.2 85.83,206.79 86.23,209.01 86.63,210.88 87.02,212.44 87.42,213.67 87.81,214.58 88.21,215.18 88.6,215.46 89,215.38 89.39,215.02 89.79,214.38 90.18,213.48 90.58,212.32 90.97,210.94 91.37,209.31 91.76,207.47 92.16,205.44 92.55,203.24 92.95,200.9 93.34,198.42 93.74,195.83 94.14,193.12 94.53,190.33 94.93,187.46 95.32,184.54 95.72,181.58 96.11,178.58 96.51,175.56 96.9,172.53 97.3,169.51 97.69,166.49 98.09,163.49 98.48,160.52 98.88,157.58 99.27,154.68 99.67,151.83 100.06,149.03 100.46,146.29 100.85,143.61 101.25,140.99 101.64,138.43 102.04,135.95 102.44,133.54 102.83,131.21 103.23,128.95 103.62,126.76 104.02,124.64 104.41,122.59 104.81,120.63 105.2,118.74 105.6,116.92 105.99,115.16 106.39,113.48 106.78,111.85 107.18,110.29 107.57,108.8 107.97,107.37 108.36,106 108.76,104.68 109.15,103.41 109.55,102.2 109.95,101.03 110.34,99.92 110.74,98.86 111.13,97.83 111.53,96.85 111.92,95.91 112.32,95.01 112.71,94.14 113.11,93.32 113.5,92.53 113.9,91.77 114.29,91.04 114.69,90.35 115.08,89.68 115.48,89.04 115.87,88.43 116.27,87.85 116.66,87.28 117.06,86.75 117.46,86.23 117.85,85.73 118.25,85.26 118.64,84.8 119.04,84.37 119.43,83.95 119.83,83.54 120.22,83.16 120.62,82.79 121.01,82.44 121.41,82.1 121.8,81.78 122.2,81.47 122.59,81.17 122.99,80.89 123.38,80.63 123.78,80.37 124.17,80.13 124.57,79.9 124.96,79.68 125.36,79.47 125.76,79.27 126.15,79.08 126.55,78.89 126.94,78.72 127.34,78.55 127.73,78.38 128.13,78.22 128.52,78.07 128.92,77.93 129.31,77.78 129.71,77.65 130.1,77.51 130.5,77.39 130.89,77.26 131.29,77.14 131.68,77.03 132.08,76.92 132.47,76.82 132.87,76.72 133.27,76.62 133.66,76.53 134.06,76.45 134.45,76.37 134.85,76.29 135.24,76.22 135.64,76.15 136.03,76.09 136.43,76.03 136.82,75.98 137.22,75.93 137.61,75.88 138.01,75.84 138.4,75.81 138.8,75.78 139.19,75.75 139.59,75.73 139.98,75.71 140.38,75.7 140.78,75.7 141.17,75.69 141.57,75.7 141.96,75.71 142.36,75.72 142.75,75.74 143.15,75.76 143.54,75.78 143.94,75.81 144.33,75.84 144.73,75.86 145.12,75.89 145.52,75.92 145.91,75.95 146.31,75.98 146.7,76.01 147.1,76.03 147.49,76.05 147.89,76.07 148.28,76.09 148.68,76.11 149.08,76.12 149.47,76.13 149.87,76.14 150.26,76.14 150.66,76.15 151.05,76.15 151.45,76.15 151.84,76.15 152.24,76.14 152.63,76.14 153.03,76.14 153.42,76.14 153.82,76.14 154.21,76.14 154.61,76.14 155,76.14 155.4,76.15 155.79,76.16 156.19,76.17 156.59,76.18 156.98,76.2 157.38,76.22 157.77,76.24 158.17,76.26 158.56,76.29 158.96,76.32 159.35,76.35 159.75,76.38 160.14,76.41 160.54,76.44 160.93,76.47 161.33,76.49 161.72,76.52 162.12,76.54 162.51,76.57 162.91,76.59 163.3,76.61 163.7,76.62 164.09,76.64 164.49,76.65 164.89,76.66 165.28,76.66 165.68,76.67 166.07,76.67 166.47,76.67 166.86,76.66 167.26,76.66 167.65,76.65 168.05,76.64 168.44,76.63 168.84,76.62 169.23,76.6 169.63,76.59 170.02,76.57 170.42,76.55 170.81,76.52 171.21,76.49 171.6,76.46 172,76.43 172.4,76.4 172.79,76.36 173.19,76.31 173.58,76.27 173.98,76.22 174.37,76.16 174.77,76.1 175.16,76.04 175.56,75.98 175.95,75.91 176.35,75.84 176.74,75.77 177.14,75.69 177.53,75.62 177.93,75.54 178.32,75.46 178.72,75.38 179.11,75.3 179.51,75.22 179.91,75.14 180.3,75.06 180.7,74.98 181.09,74.9 181.49,74.82 181.88,74.74 182.28,74.66 182.67,74.58 183.07,74.5 183.46,74.42 183.86,74.34 184.25,74.25 184.65,74.17 185.04,74.08 185.44,74 185.83,73.91 186.23,73.81 186.62,73.72 187.02,73.62 187.41,73.52 187.81,73.41 188.21,73.3 188.6,73.19 189,73.08 189.39,72.96 189.79,72.84 190.18,72.71 190.58,72.59 190.97,72.46 191.37,72.32 191.76,72.19 192.16,72.05 192.55,71.91 192.95,71.77 193.34,71.63 193.74,71.49 194.13,71.35 194.53,71.2 194.92,71.06 195.32,70.92 195.72,70.78 196.11,70.64 196.51,70.5 196.9,70.36 197.3,70.23 197.69,70.1 198.09,69.97 198.48,69.85 198.88,69.72 199.27,69.6 199.67,69.49 200.06,69.37 200.46,69.25 200.85,69.14 201.25,69.02 201.64,68.91 202.04,68.8 202.43,68.68 202.83,68.56 203.23,68.44 203.62,68.32 204.02,68.19 204.41,68.07 204.81,67.94 205.2,67.8 205.6,67.67 205.99,67.53 206.39,67.39 206.78,67.26 207.18,67.12 207.57,66.98 207.97,66.84 208.36,66.7 208.76,66.57 209.15,66.44 209.55,66.31 209.94,66.19 210.34,66.07 210.73,65.95 211.13,65.83 211.53,65.72 211.92,65.61 212.32,65.51 212.71,65.4 213.11,65.3 213.5,65.2 213.9,65.1 214.29,64.99 214.69,64.89 215.08,64.79 215.48,64.68 215.87,64.57 216.27,64.46 216.66,64.35 217.06,64.23 217.45,64.12 217.85,64 218.24,63.88 218.64,63.76 219.04,63.64 219.43,63.52 219.83,63.4 220.22,63.28 220.62,63.16 221.01,63.04 221.41,62.93 221.8,62.81 222.2,62.7 222.59,62.6 222.99,62.49 223.38,62.39 223.78,62.29 224.17,62.19 224.57,62.1 224.96,62.01 225.36,61.92 225.75,61.83 226.15,61.75 226.54,61.66 226.94,61.58 227.34,61.49 227.73,61.41 228.13,61.33 228.52,61.25 228.92,61.16 229.31,61.08 229.71,61 230.1,60.91 230.5,60.82 230.89,60.74 231.29,60.65 231.68,60.56 232.08,60.48 232.47,60.39 232.87,60.3 233.26,60.21 233.66,60.12 234.05,60.03 234.45,59.95 234.85,59.86 235.24,59.77 235.64,59.69 236.03,59.61 236.43,59.52 236.82,59.44 237.22,59.36 237.61,59.28 238.01,59.19 238.4,59.11 238.8,59.03 239.19,58.95 239.59,58.87 239.98,58.78 240.38,58.7 240.77,58.61 241.17,58.52 241.56,58.42 241.96,58.32 242.36,58.22 242.75,58.11 243.15,58 243.54,57.88 243.94,57.75 244.33,57.62 244.73,57.48 245.12,57.34 245.52,57.19 245.91,57.04 246.31,56.88 246.7,56.72 247.1,56.56 247.49,56.4 247.89,56.23 248.28,56.07 248.68,55.91 249.07,55.75 249.47,55.6 249.86,55.45 250.26,55.31 250.66,55.17 251.05,55.04 251.45,54.92 251.84,54.81 252.24,54.71 252.63,54.61 253.03,54.52 253.42,54.44 253.82,54.38 254.21,54.31 254.61,54.26 255,54.21 255.4,54.17 255.79,54.13 256.19,54.1 256.58,54.08 256.98,54.06 257.37,54.04 257.77,54.02 258.17,54.01 258.56,54 258.96,53.99 259.35,53.98 259.75,53.98 260.14,53.98 260.54,53.97 260.93,53.97 261.33,53.97" stroke-dasharray="none" stroke="rgb(31,120,180)" stroke-width="0.75" opacity="1" stroke-opacity="1" fill="none"/>
          </g>
          <g id="Fig:densplot_01.xyplot.lines.group.4.panel.1.1.1">
            <polyline id="Fig:densplot_01.xyplot.lines.group.4.panel.1.1.1.1" points="59.84,53.97 60.23,53.97 60.63,53.98 61.02,53.98 61.41,53.99 61.81,54 62.2,54.01 62.6,54.03 62.99,54.05 63.38,54.08 63.78,54.11 64.17,54.16 64.57,54.22 64.96,54.29 65.35,54.38 65.75,54.5 66.14,54.64 66.54,54.81 66.93,55.01 67.32,55.26 67.72,55.57 68.11,55.94 68.51,56.37 68.9,56.88 69.29,57.48 69.69,58.17 70.08,58.99 70.48,59.94 70.87,61.03 71.26,62.26 71.66,63.65 72.05,65.22 72.45,66.98 72.84,68.96 73.23,71.16 73.63,73.57 74.02,76.2 74.41,79.07 74.81,82.16 75.2,85.51 75.6,89.12 75.99,92.96 76.38,97.02 76.78,101.29 77.17,105.76 77.57,110.42 77.96,115.28 78.35,120.28 78.75,125.41 79.14,130.63 79.54,135.93 79.93,141.28 80.32,146.64 80.72,151.99 81.11,157.3 81.51,162.52 81.9,167.64 82.29,172.63 82.69,177.47 83.08,182.11 83.48,186.51 83.87,190.67 84.26,194.57 84.66,198.19 85.05,201.53 85.45,204.57 85.84,207.27 86.23,209.6 86.63,211.6 87.02,213.27 87.42,214.61 87.81,215.61 88.2,216.29 88.6,216.62 88.99,216.6 89.38,216.29 89.78,215.69 90.17,214.81 90.57,213.68 90.96,212.3 91.35,210.66 91.75,208.81 92.14,206.77 92.54,204.57 92.93,202.21 93.32,199.72 93.72,197.11 94.11,194.38 94.51,191.58 94.9,188.71 95.29,185.8 95.69,182.84 96.08,179.87 96.48,176.88 96.87,173.89 97.26,170.91 97.66,167.95 98.05,165.01 98.45,162.11 98.84,159.24 99.23,156.42 99.63,153.66 100.02,150.94 100.42,148.29 100.81,145.69 101.2,143.15 101.6,140.67 101.99,138.26 102.39,135.92 102.78,133.65 103.17,131.44 103.57,129.3 103.96,127.23 104.35,125.22 104.75,123.29 105.14,121.43 105.54,119.62 105.93,117.88 106.32,116.2 106.72,114.58 107.11,113.01 107.51,111.52 107.9,110.07 108.29,108.68 108.69,107.34 109.08,106.04 109.48,104.79 109.87,103.59 110.26,102.44 110.66,101.32 111.05,100.25 111.45,99.21 111.84,98.21 112.23,97.24 112.63,96.31 113.02,95.41 113.42,94.54 113.81,93.7 114.2,92.88 114.6,92.1 114.99,91.33 115.39,90.6 115.78,89.88 116.17,89.19 116.57,88.53 116.96,87.88 117.36,87.25 117.75,86.65 118.14,86.07 118.54,85.51 118.93,84.96 119.32,84.44 119.72,83.94 120.11,83.46 120.51,83 120.9,82.56 121.29,82.14 121.69,81.74 122.08,81.35 122.48,80.99 122.87,80.65 123.26,80.32 123.66,80.01 124.05,79.72 124.45,79.44 124.84,79.18 125.23,78.94 125.63,78.7 126.02,78.48 126.42,78.27 126.81,78.08 127.2,77.89 127.6,77.7 127.99,77.53 128.39,77.37 128.78,77.21 129.17,77.05 129.57,76.91 129.96,76.76 130.36,76.63 130.75,76.49 131.14,76.37 131.54,76.25 131.93,76.14 132.33,76.03 132.72,75.93 133.11,75.83 133.51,75.74 133.9,75.66 134.29,75.59 134.69,75.52 135.08,75.46 135.48,75.4 135.87,75.35 136.26,75.31 136.66,75.26 137.05,75.23 137.45,75.19 137.84,75.16 138.23,75.12 138.63,75.09 139.02,75.06 139.42,75.03 139.81,75 140.2,74.97 140.6,74.94 140.99,74.91 141.39,74.88 141.78,74.85 142.17,74.83 142.57,74.81 142.96,74.79 143.36,74.77 143.75,74.76 144.14,74.75 144.54,74.75 144.93,74.75 145.33,74.76 145.72,74.77 146.11,74.79 146.51,74.81 146.9,74.84 147.3,74.87 147.69,74.9 148.08,74.94 148.48,74.97 148.87,75.01 149.26,75.05 149.66,75.1 150.05,75.14 150.45,75.18 150.84,75.23 151.23,75.27 151.63,75.31 152.02,75.36 152.42,75.4 152.81,75.44 153.2,75.48 153.6,75.52 153.99,75.56 154.39,75.6 154.78,75.64 155.17,75.68 155.57,75.72 155.96,75.76 156.36,75.79 156.75,75.82 157.14,75.85 157.54,75.87 157.93,75.9 158.33,75.91 158.72,75.92 159.11,75.93 159.51,75.93 159.9,75.92 160.3,75.91 160.69,75.9 161.08,75.88 161.48,75.86 161.87,75.83 162.27,75.8 162.66,75.78 163.05,75.75 163.45,75.72 163.84,75.69 164.23,75.66 164.63,75.64 165.02,75.62 165.42,75.6 165.81,75.59 166.2,75.58 166.6,75.58 166.99,75.57 167.39,75.58 167.78,75.58 168.17,75.59 168.57,75.59 168.96,75.6 169.36,75.6 169.75,75.61 170.14,75.61 170.54,75.6 170.93,75.59 171.33,75.58 171.72,75.56 172.11,75.53 172.51,75.5 172.9,75.45 173.3,75.41 173.69,75.36 174.08,75.3 174.48,75.24 174.87,75.17 175.27,75.11 175.66,75.04 176.05,74.97 176.45,74.9 176.84,74.84 177.24,74.77 177.63,74.71 178.02,74.65 178.42,74.6 178.81,74.54 179.2,74.5 179.6,74.45 179.99,74.41 180.39,74.37 180.78,74.33 181.17,74.29 181.57,74.25 181.96,74.2 182.36,74.16 182.75,74.11 183.14,74.06 183.54,74 183.93,73.94 184.33,73.87 184.72,73.79 185.11,73.71 185.51,73.62 185.9,73.52 186.3,73.41 186.69,73.3 187.08,73.18 187.48,73.05 187.87,72.92 188.27,72.78 188.66,72.64 189.05,72.49 189.45,72.35 189.84,72.2 190.24,72.05 190.63,71.91 191.02,71.77 191.42,71.63 191.81,71.49 192.21,71.36 192.6,71.24 192.99,71.12 193.39,71.01 193.78,70.91 194.17,70.81 194.57,70.72 194.96,70.63 195.36,70.56 195.75,70.48 196.14,70.41 196.54,70.35 196.93,70.28 197.33,70.22 197.72,70.16 198.11,70.09 198.51,70.03 198.9,69.96 199.3,69.89 199.69,69.82 200.08,69.74 200.48,69.66 200.87,69.57 201.27,69.47 201.66,69.37 202.05,69.27 202.45,69.16 202.84,69.04 203.24,68.92 203.63,68.8 204.02,68.67 204.42,68.54 204.81,68.41 205.21,68.27 205.6,68.14 205.99,68.01 206.39,67.87 206.78,67.74 207.18,67.61 207.57,67.48 207.96,67.35 208.36,67.23 208.75,67.11 209.14,66.99 209.54,66.87 209.93,66.76 210.33,66.64 210.72,66.53 211.11,66.42 211.51,66.32 211.9,66.21 212.3,66.1 212.69,65.99 213.08,65.88 213.48,65.77 213.87,65.66 214.27,65.55 214.66,65.44 215.05,65.33 215.45,65.21 215.84,65.09 216.24,64.97 216.63,64.85 217.02,64.73 217.42,64.61 217.81,64.49 218.21,64.37 218.6,64.25 218.99,64.13 219.39,64.01 219.78,63.89 220.18,63.77 220.57,63.66 220.96,63.54 221.36,63.43 221.75,63.31 222.15,63.2 222.54,63.09 222.93,62.98 223.33,62.88 223.72,62.77 224.11,62.67 224.51,62.56 224.9,62.46 225.3,62.36 225.69,62.26 226.08,62.17 226.48,62.07 226.87,61.98 227.27,61.89 227.66,61.8 228.05,61.72 228.45,61.64 228.84,61.56 229.24,61.48 229.63,61.4 230.02,61.33 230.42,61.25 230.81,61.18 231.21,61.11 231.6,61.04 231.99,60.96 232.39,60.89 232.78,60.81 233.18,60.73 233.57,60.65 233.96,60.57 234.36,60.48 234.75,60.4 235.15,60.3 235.54,60.21 235.93,60.11 236.33,60 236.72,59.9 237.12,59.79 237.51,59.68 237.9,59.57 238.3,59.45 238.69,59.34 239.08,59.22 239.48,59.1 239.87,58.98 240.27,58.86 240.66,58.74 241.05,58.62 241.45,58.5 241.84,58.38 242.24,58.25 242.63,58.13 243.02,58 243.42,57.87 243.81,57.73 244.21,57.6 244.6,57.46 244.99,57.32 245.39,57.17 245.78,57.02 246.18,56.87 246.57,56.72 246.96,56.56 247.36,56.41 247.75,56.25 248.15,56.09 248.54,55.94 248.93,55.79 249.33,55.64 249.72,55.49 250.12,55.35 250.51,55.22 250.9,55.09 251.3,54.96 251.69,54.85 252.09,54.75 252.48,54.65 252.87,54.56 253.27,54.48 253.66,54.4 254.05,54.34 254.45,54.28 254.84,54.23 255.24,54.19 255.63,54.15 256.02,54.12 256.42,54.09 256.81,54.06 257.21,54.04 257.6,54.03 257.99,54.01 258.39,54 258.78,53.99 259.18,53.99 259.57,53.98 259.96,53.98 260.36,53.97 260.75,53.97 261.15,53.97" stroke-dasharray="none" stroke="rgb(31,120,180)" stroke-width="0.75" opacity="1" stroke-opacity="1" fill="none"/>
          </g>
          <g id="Fig:densplot_01.xyplot.lines.group.5.panel.1.1.1">
            <polyline id="Fig:densplot_01.xyplot.lines.group.5.panel.1.1.1.1" points="59.81,53.97 60.2,53.97 60.6,53.97 60.99,53.97 61.38,53.98 61.78,53.98 62.17,53.99 62.57,54 62.96,54.02 63.35,54.03 63.75,54.06 64.14,54.09 64.54,54.12 64.93,54.17 65.32,54.23 65.72,54.31 66.11,54.41 66.5,54.52 66.9,54.67 67.29,54.85 67.69,55.07 68.08,55.34 68.47,55.65 68.87,56.03 69.26,56.47 69.66,57.01 70.05,57.65 70.44,58.38 70.84,59.23 71.23,60.21 71.62,61.32 72.02,62.59 72.41,64.06 72.81,65.7 73.2,67.54 73.59,69.59 73.99,71.84 74.38,74.32 74.77,77.05 75.17,80.05 75.56,83.29 75.96,86.78 76.35,90.5 76.74,94.47 77.14,98.67 77.53,103.13 77.93,107.81 78.32,112.68 78.71,117.73 79.11,122.94 79.5,128.28 79.89,133.74 80.29,139.29 80.68,144.89 81.08,150.51 81.47,156.11 81.86,161.67 82.26,167.15 82.65,172.53 83.05,177.75 83.44,182.78 83.83,187.6 84.23,192.2 84.62,196.54 85.01,200.6 85.41,204.35 85.8,207.73 86.2,210.77 86.59,213.47 86.98,215.81 87.38,217.79 87.77,219.41 88.16,220.64 88.56,221.46 88.95,221.92 89.35,222.05 89.74,221.84 90.13,221.31 90.53,220.47 90.92,219.31 91.32,217.85 91.71,216.15 92.1,214.21 92.5,212.06 92.89,209.71 93.28,207.2 93.68,204.5 94.07,201.68 94.47,198.74 94.86,195.71 95.25,192.61 95.65,189.45 96.04,186.25 96.44,183.01 96.83,179.77 97.22,176.53 97.62,173.31 98.01,170.11 98.4,166.94 98.8,163.82 99.19,160.76 99.59,157.75 99.98,154.8 100.37,151.92 100.77,149.11 101.16,146.37 101.55,143.71 101.95,141.13 102.34,138.63 102.74,136.2 103.13,133.84 103.52,131.56 103.92,129.35 104.31,127.22 104.71,125.16 105.1,123.17 105.49,121.24 105.89,119.38 106.28,117.57 106.67,115.83 107.07,114.15 107.46,112.52 107.86,110.95 108.25,109.43 108.64,107.97 109.04,106.55 109.43,105.18 109.83,103.87 110.22,102.6 110.61,101.39 111.01,100.21 111.4,99.09 111.79,98.01 112.19,96.97 112.58,95.98 112.98,95.03 113.37,94.13 113.76,93.26 114.16,92.43 114.55,91.63 114.95,90.87 115.34,90.15 115.73,89.45 116.13,88.79 116.52,88.15 116.91,87.53 117.31,86.94 117.7,86.37 118.1,85.82 118.49,85.3 118.88,84.78 119.28,84.29 119.67,83.81 120.06,83.35 120.46,82.9 120.85,82.47 121.25,82.06 121.64,81.65 122.03,81.26 122.43,80.88 122.82,80.51 123.22,80.16 123.61,79.82 124,79.49 124.4,79.17 124.79,78.86 125.18,78.56 125.58,78.27 125.97,78 126.37,77.73 126.76,77.48 127.15,77.24 127.55,77.01 127.94,76.79 128.34,76.59 128.73,76.4 129.12,76.23 129.52,76.07 129.91,75.92 130.3,75.79 130.7,75.67 131.09,75.57 131.49,75.49 131.88,75.41 132.27,75.35 132.67,75.3 133.06,75.26 133.45,75.22 133.85,75.2 134.24,75.17 134.64,75.15 135.03,75.14 135.42,75.12 135.82,75.1 136.21,75.07 136.61,75.05 137,75.02 137.39,74.98 137.79,74.94 138.18,74.89 138.57,74.83 138.97,74.78 139.36,74.71 139.76,74.65 140.15,74.58 140.54,74.52 140.94,74.45 141.33,74.39 141.73,74.33 142.12,74.27 142.51,74.22 142.91,74.17 143.3,74.14 143.69,74.11 144.09,74.08 144.48,74.06 144.88,74.06 145.27,74.05 145.66,74.06 146.06,74.06 146.45,74.08 146.84,74.09 147.24,74.11 147.63,74.14 148.03,74.16 148.42,74.18 148.81,74.21 149.21,74.23 149.6,74.25 150,74.27 150.39,74.28 150.78,74.29 151.18,74.3 151.57,74.31 151.96,74.32 152.36,74.32 152.75,74.32 153.15,74.32 153.54,74.32 153.93,74.31 154.33,74.31 154.72,74.31 155.12,74.31 155.51,74.3 155.9,74.3 156.3,74.31 156.69,74.31 157.08,74.31 157.48,74.32 157.87,74.33 158.27,74.34 158.66,74.35 159.05,74.36 159.45,74.38 159.84,74.39 160.23,74.41 160.63,74.43 161.02,74.45 161.42,74.46 161.81,74.48 162.2,74.5 162.6,74.51 162.99,74.52 163.39,74.54 163.78,74.55 164.17,74.56 164.57,74.56 164.96,74.57 165.35,74.57 165.75,74.57 166.14,74.58 166.54,74.57 166.93,74.57 167.32,74.57 167.72,74.56 168.11,74.56 168.51,74.55 168.9,74.55 169.29,74.54 169.69,74.53 170.08,74.53 170.47,74.52 170.87,74.51 171.26,74.5 171.66,74.5 172.05,74.49 172.44,74.48 172.84,74.47 173.23,74.45 173.62,74.44 174.02,74.42 174.41,74.4 174.81,74.38 175.2,74.35 175.59,74.32 175.99,74.29 176.38,74.25 176.78,74.21 177.17,74.16 177.56,74.11 177.96,74.06 178.35,74.01 178.74,73.95 179.14,73.89 179.53,73.83 179.93,73.77 180.32,73.7 180.71,73.64 181.11,73.58 181.5,73.52 181.9,73.47 182.29,73.41 182.68,73.36 183.08,73.32 183.47,73.27 183.86,73.23 184.26,73.18 184.65,73.14 185.05,73.1 185.44,73.06 185.83,73.02 186.23,72.98 186.62,72.94 187.01,72.89 187.41,72.84 187.8,72.79 188.2,72.73 188.59,72.66 188.98,72.59 189.38,72.52 189.77,72.44 190.17,72.35 190.56,72.26 190.95,72.16 191.35,72.06 191.74,71.95 192.13,71.84 192.53,71.73 192.92,71.61 193.32,71.49 193.71,71.37 194.1,71.25 194.5,71.13 194.89,71.01 195.29,70.88 195.68,70.77 196.07,70.65 196.47,70.53 196.86,70.42 197.25,70.31 197.65,70.2 198.04,70.09 198.44,69.99 198.83,69.89 199.22,69.8 199.62,69.7 200.01,69.61 200.4,69.52 200.8,69.44 201.19,69.35 201.59,69.27 201.98,69.19 202.37,69.11 202.77,69.03 203.16,68.95 203.56,68.87 203.95,68.79 204.34,68.71 204.74,68.64 205.13,68.56 205.52,68.48 205.92,68.4 206.31,68.32 206.71,68.25 207.1,68.17 207.49,68.09 207.89,68.01 208.28,67.93 208.68,67.86 209.07,67.77 209.46,67.69 209.86,67.61 210.25,67.52 210.64,67.43 211.04,67.34 211.43,67.24 211.83,67.15 212.22,67.04 212.61,66.94 213.01,66.82 213.4,66.71 213.79,66.59 214.19,66.47 214.58,66.34 214.98,66.22 215.37,66.09 215.76,65.96 216.16,65.82 216.55,65.69 216.95,65.56 217.34,65.42 217.73,65.29 218.13,65.16 218.52,65.03 218.91,64.91 219.31,64.78 219.7,64.66 220.1,64.54 220.49,64.42 220.88,64.3 221.28,64.19 221.67,64.08 222.07,63.97 222.46,63.86 222.85,63.75 223.25,63.64 223.64,63.54 224.03,63.43 224.43,63.33 224.82,63.23 225.22,63.13 225.61,63.03 226,62.93 226.4,62.83 226.79,62.74 227.18,62.64 227.58,62.55 227.97,62.46 228.37,62.37 228.76,62.28 229.15,62.19 229.55,62.11 229.94,62.02 230.34,61.94 230.73,61.86 231.12,61.78 231.52,61.7 231.91,61.63 232.3,61.55 232.7,61.48 233.09,61.41 233.49,61.34 233.88,61.26 234.27,61.19 234.67,61.12 235.06,61.05 235.46,60.98 235.85,60.9 236.24,60.83 236.64,60.75 237.03,60.67 237.42,60.59 237.82,60.5 238.21,60.42 238.61,60.33 239,60.23 239.39,60.13 239.79,60.03 240.18,59.92 240.57,59.81 240.97,59.69 241.36,59.56 241.76,59.43 242.15,59.29 242.54,59.14 242.94,58.99 243.33,58.83 243.73,58.66 244.12,58.48 244.51,58.3 244.91,58.11 245.3,57.92 245.69,57.72 246.09,57.52 246.48,57.31 246.88,57.11 247.27,56.9 247.66,56.7 248.06,56.49 248.45,56.29 248.85,56.1 249.24,55.91 249.63,55.73 250.03,55.55 250.42,55.39 250.81,55.23 251.21,55.09 251.6,54.95 252,54.83 252.39,54.72 252.78,54.62 253.18,54.52 253.57,54.44 253.96,54.37 254.36,54.3 254.75,54.25 255.15,54.2 255.54,54.16 255.93,54.12 256.33,54.09 256.72,54.07 257.12,54.05 257.51,54.03 257.9,54.02 258.3,54 258.69,53.99 259.08,53.99 259.48,53.98 259.87,53.98 260.27,53.97 260.66,53.97 261.05,53.97" stroke-dasharray="none" stroke="rgb(31,120,180)" stroke-width="0.75" opacity="1" stroke-opacity="1" fill="none"/>
          </g>
          <g id="Fig:densplot_01.xyplot.lines.group.6.panel.1.1.1">
            <polyline id="Fig:densplot_01.xyplot.lines.group.6.panel.1.1.1.1" points="59.83,53.97 60.23,53.97 60.62,53.97 61.02,53.97 61.41,53.98 61.8,53.98 62.2,53.99 62.59,54 62.98,54.01 63.38,54.03 63.77,54.05 64.17,54.08 64.56,54.12 64.95,54.16 65.35,54.22 65.74,54.29 66.13,54.38 66.53,54.49 66.92,54.64 67.32,54.81 67.71,55.02 68.1,55.27 68.5,55.58 68.89,55.94 69.28,56.37 69.68,56.89 70.07,57.5 70.47,58.22 70.86,59.04 71.25,59.99 71.65,61.07 72.04,62.32 72.43,63.76 72.83,65.37 73.22,67.17 73.62,69.18 74.01,71.4 74.4,73.84 74.8,76.56 75.19,79.53 75.58,82.75 75.98,86.21 76.37,89.91 76.76,93.87 77.16,98.06 77.55,102.53 77.95,107.21 78.34,112.09 78.73,117.16 79.13,122.38 79.52,127.75 79.91,133.24 80.31,138.82 80.7,144.46 81.1,150.11 81.49,155.75 81.88,161.34 82.28,166.86 82.67,172.27 83.06,177.51 83.46,182.57 83.85,187.42 84.25,192.04 84.64,196.4 85.03,200.48 85.43,204.23 85.82,207.63 86.21,210.69 86.61,213.41 87,215.78 87.4,217.79 87.79,219.43 88.18,220.67 88.58,221.53 88.97,222.05 89.36,222.22 89.76,222.07 90.15,221.6 90.55,220.82 90.94,219.7 91.33,218.31 91.73,216.67 92.12,214.8 92.51,212.71 92.91,210.42 93.3,207.95 93.7,205.29 94.09,202.49 94.48,199.57 94.88,196.55 95.27,193.44 95.66,190.26 96.06,187.02 96.45,183.74 96.85,180.43 97.24,177.12 97.63,173.81 98.03,170.51 98.42,167.24 98.81,164 99.21,160.81 99.6,157.68 100,154.61 100.39,151.61 100.78,148.68 101.18,145.82 101.57,143.05 101.96,140.38 102.36,137.79 102.75,135.29 103.15,132.87 103.54,130.55 103.93,128.3 104.33,126.16 104.72,124.1 105.11,122.13 105.51,120.23 105.9,118.41 106.3,116.66 106.69,114.99 107.08,113.39 107.48,111.86 107.87,110.4 108.26,108.99 108.66,107.64 109.05,106.34 109.45,105.09 109.84,103.9 110.23,102.76 110.63,101.65 111.02,100.59 111.41,99.56 111.81,98.57 112.2,97.61 112.6,96.68 112.99,95.79 113.38,94.92 113.78,94.08 114.17,93.27 114.56,92.47 114.96,91.71 115.35,90.97 115.75,90.25 116.14,89.55 116.53,88.87 116.93,88.21 117.32,87.58 117.71,86.96 118.11,86.37 118.5,85.8 118.89,85.25 119.29,84.72 119.68,84.2 120.08,83.71 120.47,83.24 120.86,82.78 121.26,82.35 121.65,81.93 122.04,81.53 122.44,81.15 122.83,80.78 123.23,80.43 123.62,80.1 124.01,79.78 124.41,79.48 124.8,79.19 125.19,78.92 125.59,78.65 125.98,78.41 126.38,78.17 126.77,77.95 127.16,77.74 127.56,77.54 127.95,77.35 128.34,77.17 128.74,77 129.13,76.84 129.53,76.69 129.92,76.54 130.31,76.41 130.71,76.28 131.1,76.16 131.49,76.04 131.89,75.94 132.28,75.83 132.68,75.74 133.07,75.64 133.46,75.55 133.86,75.47 134.25,75.39 134.64,75.31 135.04,75.23 135.43,75.16 135.83,75.08 136.22,75.01 136.61,74.94 137.01,74.87 137.4,74.81 137.79,74.74 138.19,74.68 138.58,74.61 138.98,74.55 139.37,74.49 139.76,74.43 140.16,74.38 140.55,74.33 140.94,74.28 141.34,74.23 141.73,74.19 142.13,74.16 142.52,74.13 142.91,74.1 143.31,74.08 143.7,74.07 144.09,74.05 144.49,74.05 144.88,74.04 145.28,74.05 145.67,74.05 146.06,74.06 146.46,74.07 146.85,74.08 147.24,74.1 147.64,74.11 148.03,74.13 148.43,74.15 148.82,74.17 149.21,74.19 149.61,74.21 150,74.23 150.39,74.25 150.79,74.27 151.18,74.29 151.58,74.31 151.97,74.33 152.36,74.35 152.76,74.36 153.15,74.38 153.54,74.39 153.94,74.4 154.33,74.41 154.73,74.42 155.12,74.42 155.51,74.42 155.91,74.42 156.3,74.41 156.69,74.41 157.09,74.4 157.48,74.39 157.88,74.38 158.27,74.37 158.66,74.36 159.06,74.35 159.45,74.33 159.84,74.32 160.24,74.32 160.63,74.31 161.02,74.3 161.42,74.3 161.81,74.3 162.21,74.3 162.6,74.3 162.99,74.3 163.39,74.3 163.78,74.3 164.17,74.3 164.57,74.31 164.96,74.31 165.36,74.32 165.75,74.32 166.14,74.32 166.54,74.32 166.93,74.32 167.32,74.33 167.72,74.33 168.11,74.32 168.51,74.32 168.9,74.32 169.29,74.32 169.69,74.32 170.08,74.31 170.47,74.31 170.87,74.31 171.26,74.3 171.66,74.3 172.05,74.29 172.44,74.29 172.84,74.29 173.23,74.28 173.62,74.28 174.02,74.27 174.41,74.26 174.81,74.25 175.2,74.24 175.59,74.23 175.99,74.21 176.38,74.19 176.77,74.17 177.17,74.14 177.56,74.11 177.96,74.08 178.35,74.04 178.74,74 179.14,73.95 179.53,73.9 179.92,73.85 180.32,73.8 180.71,73.74 181.11,73.68 181.5,73.62 181.89,73.56 182.29,73.5 182.68,73.44 183.07,73.38 183.47,73.32 183.86,73.26 184.26,73.2 184.65,73.14 185.04,73.08 185.44,73.02 185.83,72.97 186.22,72.91 186.62,72.85 187.01,72.78 187.41,72.72 187.8,72.66 188.19,72.59 188.59,72.51 188.98,72.44 189.37,72.36 189.77,72.28 190.16,72.19 190.56,72.1 190.95,72.01 191.34,71.91 191.74,71.81 192.13,71.7 192.52,71.6 192.92,71.49 193.31,71.38 193.71,71.27 194.1,71.16 194.49,71.04 194.89,70.93 195.28,70.82 195.67,70.72 196.07,70.61 196.46,70.51 196.86,70.41 197.25,70.31 197.64,70.21 198.04,70.11 198.43,70.02 198.82,69.93 199.22,69.84 199.61,69.75 200.01,69.66 200.4,69.58 200.79,69.49 201.19,69.41 201.58,69.32 201.97,69.24 202.37,69.16 202.76,69.07 203.16,68.99 203.55,68.91 203.94,68.82 204.34,68.74 204.73,68.65 205.12,68.57 205.52,68.49 205.91,68.4 206.3,68.32 206.7,68.23 207.09,68.15 207.49,68.07 207.88,67.98 208.27,67.89 208.67,67.81 209.06,67.72 209.45,67.63 209.85,67.54 210.24,67.45 210.64,67.36 211.03,67.26 211.42,67.17 211.82,67.07 212.21,66.97 212.6,66.86 213,66.76 213.39,66.65 213.79,66.54 214.18,66.42 214.57,66.31 214.97,66.19 215.36,66.07 215.75,65.95 216.15,65.83 216.54,65.7 216.94,65.58 217.33,65.46 217.72,65.33 218.12,65.21 218.51,65.09 218.9,64.97 219.3,64.85 219.69,64.73 220.09,64.62 220.48,64.5 220.87,64.39 221.27,64.28 221.66,64.17 222.05,64.06 222.45,63.95 222.84,63.85 223.24,63.74 223.63,63.64 224.02,63.54 224.42,63.44 224.81,63.34 225.2,63.24 225.6,63.14 225.99,63.05 226.39,62.95 226.78,62.86 227.17,62.76 227.57,62.67 227.96,62.58 228.35,62.49 228.75,62.4 229.14,62.31 229.54,62.22 229.93,62.13 230.32,62.05 230.72,61.96 231.11,61.87 231.5,61.79 231.9,61.71 232.29,61.62 232.69,61.54 233.08,61.46 233.47,61.38 233.87,61.3 234.26,61.22 234.65,61.15 235.05,61.07 235.44,60.99 235.84,60.92 236.23,60.84 236.62,60.76 237.02,60.69 237.41,60.61 237.8,60.52 238.2,60.44 238.59,60.35 238.99,60.26 239.38,60.16 239.77,60.06 240.17,59.96 240.56,59.85 240.95,59.73 241.35,59.6 241.74,59.47 242.14,59.33 242.53,59.18 242.92,59.03 243.32,58.86 243.71,58.69 244.1,58.52 244.5,58.33 244.89,58.14 245.29,57.94 245.68,57.74 246.07,57.53 246.47,57.33 246.86,57.12 247.25,56.91 247.65,56.7 248.04,56.49 248.43,56.29 248.83,56.09 249.22,55.9 249.62,55.72 250.01,55.54 250.4,55.38 250.8,55.22 251.19,55.08 251.58,54.94 251.98,54.82 252.37,54.71 252.77,54.61 253.16,54.51 253.55,54.43 253.95,54.36 254.34,54.3 254.73,54.24 255.13,54.19 255.52,54.15 255.92,54.12 256.31,54.09 256.7,54.06 257.1,54.04 257.49,54.03 257.88,54.01 258.28,54 258.67,53.99 259.07,53.99 259.46,53.98 259.85,53.98 260.25,53.97 260.64,53.97 261.03,53.97" stroke-dasharray="none" stroke="rgb(31,120,180)" stroke-width="0.75" opacity="1" stroke-opacity="1" fill="none"/>
          </g>
          <g id="Fig:densplot_01.xyplot.lines.group.7.panel.1.1.1">
            <polyline id="Fig:densplot_01.xyplot.lines.group.7.panel.1.1.1.1" points="59.03,53.97 59.43,53.97 59.82,53.98 60.22,53.98 60.62,53.99 61.01,54 61.41,54.01 61.81,54.03 62.21,54.05 62.6,54.07 63,54.11 63.4,54.15 63.79,54.2 64.19,54.27 64.59,54.35 64.98,54.46 65.38,54.59 65.78,54.74 66.17,54.94 66.57,55.16 66.97,55.44 67.36,55.78 67.76,56.18 68.16,56.65 68.55,57.2 68.95,57.84 69.35,58.57 69.74,59.44 70.14,60.44 70.54,61.59 70.94,62.88 71.33,64.33 71.73,65.96 72.13,67.78 72.52,69.84 72.92,72.1 73.32,74.59 73.71,77.3 74.11,80.24 74.51,83.41 74.9,86.85 75.3,90.55 75.7,94.48 76.09,98.63 76.49,103 76.89,107.57 77.28,112.33 77.68,117.3 78.08,122.42 78.47,127.66 78.87,133 79.27,138.42 79.66,143.88 80.06,149.36 80.46,154.83 80.86,160.23 81.25,165.55 81.65,170.76 82.05,175.83 82.44,180.73 82.84,185.38 83.24,189.79 83.63,193.94 84.03,197.81 84.43,201.39 84.82,204.65 85.22,207.55 85.62,210.06 86.01,212.22 86.41,214.03 86.81,215.47 87.2,216.56 87.6,217.29 88,217.61 88.39,217.58 88.79,217.22 89.19,216.54 89.59,215.57 89.98,214.3 90.38,212.75 90.78,210.92 91.17,208.86 91.57,206.6 91.97,204.15 92.36,201.53 92.76,198.77 93.16,195.86 93.55,192.84 93.95,189.74 94.35,186.57 94.74,183.36 95.14,180.11 95.54,176.85 95.93,173.58 96.33,170.33 96.73,167.1 97.12,163.9 97.52,160.75 97.92,157.65 98.32,154.61 98.71,151.65 99.11,148.76 99.51,145.94 99.9,143.19 100.3,140.53 100.7,137.94 101.09,135.45 101.49,133.04 101.89,130.72 102.28,128.47 102.68,126.3 103.08,124.21 103.47,122.2 103.87,120.27 104.27,118.42 104.66,116.63 105.06,114.92 105.46,113.26 105.85,111.67 106.25,110.16 106.65,108.7 107.05,107.3 107.44,105.95 107.84,104.65 108.24,103.4 108.63,102.21 109.03,101.06 109.43,99.96 109.82,98.89 110.22,97.87 110.62,96.88 111.01,95.93 111.41,95.03 111.81,94.15 112.2,93.31 112.6,92.5 113,91.72 113.39,90.96 113.79,90.24 114.19,89.55 114.58,88.88 114.98,88.23 115.38,87.61 115.78,87.01 116.17,86.44 116.57,85.88 116.97,85.35 117.36,84.84 117.76,84.34 118.16,83.86 118.55,83.39 118.95,82.94 119.35,82.51 119.74,82.09 120.14,81.69 120.54,81.3 120.93,80.92 121.33,80.55 121.73,80.21 122.12,79.87 122.52,79.55 122.92,79.25 123.31,78.95 123.71,78.68 124.11,78.41 124.51,78.17 124.9,77.93 125.3,77.72 125.7,77.51 126.09,77.32 126.49,77.14 126.89,76.98 127.28,76.83 127.68,76.68 128.08,76.55 128.47,76.43 128.87,76.32 129.27,76.22 129.66,76.12 130.06,76.03 130.46,75.95 130.85,75.87 131.25,75.79 131.65,75.72 132.04,75.65 132.44,75.59 132.84,75.53 133.24,75.47 133.63,75.41 134.03,75.35 134.43,75.29 134.82,75.24 135.22,75.18 135.62,75.13 136.01,75.07 136.41,75.02 136.81,74.97 137.2,74.91 137.6,74.86 138,74.81 138.39,74.75 138.79,74.7 139.19,74.65 139.58,74.6 139.98,74.55 140.38,74.51 140.77,74.47 141.17,74.43 141.57,74.4 141.97,74.36 142.36,74.34 142.76,74.32 143.16,74.31 143.55,74.3 143.95,74.3 144.35,74.3 144.74,74.31 145.14,74.33 145.54,74.35 145.93,74.38 146.33,74.41 146.73,74.45 147.12,74.5 147.52,74.55 147.92,74.6 148.31,74.66 148.71,74.72 149.11,74.78 149.5,74.85 149.9,74.91 150.3,74.98 150.7,75.05 151.09,75.11 151.49,75.18 151.89,75.25 152.28,75.31 152.68,75.37 153.08,75.43 153.47,75.49 153.87,75.55 154.27,75.6 154.66,75.64 155.06,75.69 155.46,75.73 155.85,75.76 156.25,75.79 156.65,75.82 157.04,75.84 157.44,75.85 157.84,75.87 158.23,75.88 158.63,75.88 159.03,75.89 159.43,75.89 159.82,75.89 160.22,75.89 160.62,75.89 161.01,75.89 161.41,75.89 161.81,75.9 162.2,75.91 162.6,75.93 163,75.95 163.39,75.97 163.79,76.01 164.19,76.05 164.58,76.09 164.98,76.14 165.38,76.2 165.77,76.26 166.17,76.33 166.57,76.4 166.96,76.47 167.36,76.55 167.76,76.62 168.16,76.7 168.55,76.78 168.95,76.85 169.35,76.92 169.74,76.99 170.14,77.05 170.54,77.11 170.93,77.15 171.33,77.19 171.73,77.22 172.12,77.24 172.52,77.25 172.92,77.25 173.31,77.24 173.71,77.22 174.11,77.18 174.5,77.14 174.9,77.09 175.3,77.02 175.69,76.95 176.09,76.87 176.49,76.78 176.89,76.69 177.28,76.59 177.68,76.49 178.08,76.38 178.47,76.27 178.87,76.16 179.27,76.05 179.66,75.94 180.06,75.84 180.46,75.73 180.85,75.63 181.25,75.54 181.65,75.45 182.04,75.37 182.44,75.29 182.84,75.21 183.23,75.14 183.63,75.08 184.03,75.02 184.42,74.96 184.82,74.91 185.22,74.85 185.61,74.8 186.01,74.76 186.41,74.71 186.81,74.66 187.2,74.62 187.6,74.57 188,74.52 188.39,74.47 188.79,74.42 189.19,74.36 189.58,74.3 189.98,74.24 190.38,74.18 190.77,74.12 191.17,74.05 191.57,73.98 191.96,73.9 192.36,73.83 192.76,73.74 193.15,73.66 193.55,73.57 193.95,73.47 194.34,73.37 194.74,73.27 195.14,73.16 195.54,73.04 195.93,72.92 196.33,72.8 196.73,72.66 197.12,72.53 197.52,72.38 197.92,72.24 198.31,72.09 198.71,71.93 199.11,71.77 199.5,71.61 199.9,71.45 200.3,71.29 200.69,71.13 201.09,70.97 201.49,70.82 201.88,70.66 202.28,70.51 202.68,70.36 203.07,70.21 203.47,70.07 203.87,69.93 204.27,69.79 204.66,69.66 205.06,69.53 205.46,69.4 205.85,69.27 206.25,69.14 206.65,69.02 207.04,68.89 207.44,68.76 207.84,68.64 208.23,68.51 208.63,68.37 209.03,68.24 209.42,68.1 209.82,67.96 210.22,67.82 210.61,67.68 211.01,67.54 211.41,67.39 211.8,67.25 212.2,67.1 212.6,66.96 213,66.81 213.39,66.67 213.79,66.53 214.19,66.39 214.58,66.26 214.98,66.13 215.38,66.01 215.77,65.88 216.17,65.77 216.57,65.65 216.96,65.54 217.36,65.43 217.76,65.33 218.15,65.23 218.55,65.13 218.95,65.03 219.34,64.93 219.74,64.83 220.14,64.73 220.53,64.62 220.93,64.52 221.33,64.41 221.73,64.3 222.12,64.18 222.52,64.06 222.92,63.94 223.31,63.82 223.71,63.69 224.11,63.56 224.5,63.42 224.9,63.29 225.3,63.15 225.69,63.01 226.09,62.87 226.49,62.74 226.88,62.6 227.28,62.46 227.68,62.33 228.07,62.2 228.47,62.07 228.87,61.95 229.26,61.83 229.66,61.71 230.06,61.6 230.46,61.49 230.85,61.39 231.25,61.29 231.65,61.2 232.04,61.11 232.44,61.02 232.84,60.94 233.23,60.86 233.63,60.79 234.03,60.71 234.42,60.65 234.82,60.58 235.22,60.51 235.61,60.45 236.01,60.38 236.41,60.32 236.8,60.25 237.2,60.18 237.6,60.11 237.99,60.04 238.39,59.97 238.79,59.89 239.19,59.81 239.58,59.72 239.98,59.63 240.38,59.53 240.77,59.42 241.17,59.31 241.57,59.19 241.96,59.06 242.36,58.93 242.76,58.79 243.15,58.64 243.55,58.48 243.95,58.32 244.34,58.15 244.74,57.98 245.14,57.8 245.53,57.61 245.93,57.43 246.33,57.24 246.72,57.05 247.12,56.85 247.52,56.66 247.92,56.47 248.31,56.29 248.71,56.1 249.11,55.93 249.5,55.75 249.9,55.59 250.3,55.43 250.69,55.28 251.09,55.14 251.49,55.01 251.88,54.89 252.28,54.78 252.68,54.68 253.07,54.58 253.47,54.5 253.87,54.42 254.26,54.36 254.66,54.3 255.06,54.24 255.45,54.2 255.85,54.16 256.25,54.12 256.65,54.1 257.04,54.07 257.44,54.05 257.84,54.03 258.23,54.02 258.63,54.01 259.03,54 259.42,53.99 259.82,53.98 260.22,53.98 260.61,53.97 261.01,53.97 261.41,53.97 261.8,53.97" stroke-dasharray="none" stroke="rgb(31,120,180)" stroke-width="0.75" opacity="1" stroke-opacity="1" fill="none"/>
          </g>
          <g id="Fig:densplot_01.xyplot.lines.group.8.panel.1.1.1">
            <polyline id="Fig:densplot_01.xyplot.lines.group.8.panel.1.1.1.1" points="59,53.97 59.4,53.97 59.79,53.97 60.19,53.98 60.59,53.98 60.98,53.99 61.38,54 61.78,54.01 62.17,54.02 62.57,54.04 62.97,54.07 63.36,54.1 63.76,54.14 64.16,54.2 64.55,54.27 64.95,54.35 65.35,54.45 65.74,54.58 66.14,54.73 66.54,54.92 66.93,55.15 67.33,55.43 67.73,55.76 68.12,56.15 68.52,56.61 68.92,57.15 69.31,57.79 69.71,58.54 70.11,59.4 70.5,60.39 70.9,61.52 71.3,62.79 71.69,64.24 72.09,65.89 72.49,67.72 72.88,69.76 73.28,72 73.68,74.47 74.07,77.15 74.47,80.12 74.87,83.33 75.26,86.78 75.66,90.46 76.06,94.38 76.45,98.52 76.85,102.91 77.25,107.52 77.64,112.33 78.04,117.31 78.44,122.44 78.83,127.7 79.23,133.06 79.63,138.52 80.02,144.02 80.42,149.53 80.82,155.03 81.21,160.48 81.61,165.84 82.01,171.1 82.4,176.18 82.8,181.08 83.2,185.77 83.59,190.22 83.99,194.42 84.39,198.35 84.78,201.93 85.18,205.16 85.58,208.06 85.97,210.62 86.37,212.82 86.77,214.67 87.16,216.15 87.56,217.2 87.96,217.9 88.35,218.25 88.75,218.27 89.15,217.95 89.54,217.33 89.94,216.37 90.34,215.09 90.73,213.56 91.13,211.78 91.53,209.77 91.92,207.56 92.32,205.16 92.72,202.56 93.11,199.82 93.51,196.95 93.91,193.98 94.3,190.92 94.7,187.79 95.1,184.6 95.49,181.37 95.89,178.12 96.29,174.86 96.68,171.6 97.08,168.37 97.48,165.15 97.87,161.98 98.27,158.85 98.66,155.77 99.06,152.75 99.46,149.79 99.85,146.9 100.25,144.07 100.65,141.33 101.04,138.66 101.44,136.07 101.84,133.56 102.23,131.12 102.63,128.76 103.03,126.49 103.42,124.3 103.82,122.19 104.22,120.15 104.61,118.19 105.01,116.3 105.41,114.49 105.8,112.76 106.2,111.1 106.6,109.51 106.99,107.98 107.39,106.52 107.79,105.12 108.18,103.79 108.58,102.52 108.98,101.3 109.37,100.14 109.77,99.04 110.17,97.98 110.56,96.97 110.96,96.01 111.36,95.1 111.75,94.23 112.15,93.4 112.55,92.6 112.94,91.85 113.34,91.12 113.74,90.44 114.13,89.79 114.53,89.16 114.93,88.57 115.32,88 115.72,87.45 116.12,86.93 116.51,86.44 116.91,85.96 117.31,85.51 117.7,85.07 118.1,84.65 118.5,84.25 118.89,83.87 119.29,83.5 119.69,83.14 120.08,82.8 120.48,82.46 120.88,82.14 121.27,81.84 121.67,81.54 122.07,81.25 122.46,80.97 122.86,80.7 123.26,80.44 123.65,80.18 124.05,79.94 124.45,79.7 124.84,79.46 125.24,79.24 125.64,79.02 126.03,78.8 126.43,78.59 126.83,78.39 127.22,78.19 127.62,77.99 128.02,77.81 128.41,77.62 128.81,77.44 129.21,77.27 129.6,77.1 130,76.94 130.4,76.78 130.79,76.63 131.19,76.49 131.59,76.35 131.98,76.22 132.38,76.09 132.78,75.97 133.17,75.86 133.57,75.75 133.97,75.65 134.36,75.56 134.76,75.47 135.16,75.39 135.55,75.32 135.95,75.25 136.35,75.19 136.74,75.13 137.14,75.08 137.54,75.03 137.93,74.99 138.33,74.96 138.73,74.93 139.12,74.9 139.52,74.87 139.92,74.85 140.31,74.84 140.71,74.82 141.11,74.81 141.5,74.8 141.9,74.79 142.3,74.78 142.69,74.78 143.09,74.78 143.49,74.78 143.88,74.78 144.28,74.78 144.68,74.78 145.07,74.79 145.47,74.8 145.87,74.81 146.26,74.82 146.66,74.83 147.06,74.85 147.45,74.87 147.85,74.89 148.25,74.91 148.64,74.93 149.04,74.95 149.44,74.98 149.83,75 150.23,75.03 150.63,75.06 151.02,75.09 151.42,75.12 151.82,75.15 152.21,75.18 152.61,75.21 153.01,75.23 153.4,75.26 153.8,75.29 154.2,75.31 154.59,75.34 154.99,75.36 155.39,75.38 155.78,75.4 156.18,75.42 156.58,75.44 156.97,75.46 157.37,75.48 157.77,75.5 158.16,75.53 158.56,75.55 158.96,75.58 159.35,75.61 159.75,75.65 160.15,75.69 160.54,75.74 160.94,75.79 161.34,75.84 161.73,75.91 162.13,75.97 162.53,76.05 162.92,76.12 163.32,76.21 163.72,76.29 164.11,76.38 164.51,76.47 164.91,76.56 165.3,76.65 165.7,76.74 166.1,76.83 166.49,76.91 166.89,76.99 167.29,77.06 167.68,77.12 168.08,77.18 168.48,77.23 168.87,77.27 169.27,77.3 169.67,77.32 170.06,77.33 170.46,77.33 170.86,77.32 171.25,77.3 171.65,77.27 172.05,77.23 172.44,77.18 172.84,77.13 173.23,77.06 173.63,76.99 174.03,76.91 174.42,76.83 174.82,76.74 175.22,76.65 175.61,76.55 176.01,76.45 176.41,76.35 176.8,76.25 177.2,76.14 177.6,76.04 177.99,75.94 178.39,75.84 178.79,75.74 179.18,75.64 179.58,75.54 179.98,75.45 180.37,75.36 180.77,75.27 181.17,75.18 181.56,75.09 181.96,75.01 182.36,74.93 182.75,74.86 183.15,74.78 183.55,74.71 183.94,74.64 184.34,74.57 184.74,74.51 185.13,74.44 185.53,74.38 185.93,74.32 186.32,74.26 186.72,74.2 187.12,74.14 187.51,74.08 187.91,74.02 188.31,73.96 188.7,73.9 189.1,73.84 189.5,73.78 189.89,73.72 190.29,73.65 190.69,73.58 191.08,73.51 191.48,73.44 191.88,73.36 192.27,73.28 192.67,73.2 193.07,73.11 193.46,73.02 193.86,72.92 194.26,72.81 194.65,72.7 195.05,72.59 195.45,72.47 195.84,72.34 196.24,72.21 196.64,72.07 197.03,71.93 197.43,71.78 197.83,71.63 198.22,71.48 198.62,71.33 199.02,71.17 199.41,71.02 199.81,70.86 200.21,70.71 200.6,70.56 201,70.41 201.4,70.27 201.79,70.13 202.19,69.99 202.59,69.86 202.98,69.74 203.38,69.61 203.78,69.49 204.17,69.38 204.57,69.26 204.97,69.15 205.36,69.04 205.76,68.93 206.16,68.83 206.55,68.72 206.95,68.61 207.35,68.5 207.74,68.39 208.14,68.27 208.54,68.15 208.93,68.03 209.33,67.91 209.73,67.79 210.12,67.66 210.52,67.53 210.92,67.4 211.31,67.27 211.71,67.14 212.11,67.01 212.5,66.87 212.9,66.74 213.3,66.61 213.69,66.48 214.09,66.35 214.49,66.22 214.88,66.09 215.28,65.96 215.68,65.84 216.07,65.71 216.47,65.59 216.87,65.47 217.26,65.35 217.66,65.23 218.06,65.11 218.45,65 218.85,64.88 219.25,64.76 219.64,64.64 220.04,64.52 220.44,64.4 220.83,64.27 221.23,64.15 221.63,64.02 222.02,63.9 222.42,63.77 222.82,63.64 223.21,63.51 223.61,63.38 224.01,63.25 224.4,63.11 224.8,62.98 225.2,62.85 225.59,62.73 225.99,62.6 226.39,62.48 226.78,62.36 227.18,62.24 227.58,62.12 227.97,62.01 228.37,61.91 228.77,61.81 229.16,61.71 229.56,61.62 229.96,61.53 230.35,61.45 230.75,61.37 231.15,61.29 231.54,61.22 231.94,61.15 232.34,61.08 232.73,61.01 233.13,60.94 233.53,60.88 233.92,60.81 234.32,60.75 234.72,60.68 235.11,60.61 235.51,60.55 235.91,60.48 236.3,60.4 236.7,60.33 237.1,60.25 237.49,60.17 237.89,60.09 238.29,60 238.68,59.91 239.08,59.82 239.48,59.72 239.87,59.62 240.27,59.52 240.67,59.41 241.06,59.29 241.46,59.17 241.86,59.05 242.25,58.92 242.65,58.78 243.05,58.64 243.44,58.49 243.84,58.34 244.24,58.18 244.63,58.01 245.03,57.84 245.43,57.67 245.82,57.49 246.22,57.31 246.61,57.13 247.01,56.94 247.41,56.76 247.8,56.57 248.2,56.39 248.6,56.21 248.99,56.03 249.39,55.86 249.79,55.69 250.18,55.53 250.58,55.38 250.98,55.23 251.37,55.1 251.77,54.97 252.17,54.85 252.56,54.74 252.96,54.65 253.36,54.56 253.75,54.47 254.15,54.4 254.55,54.33 254.94,54.28 255.34,54.23 255.74,54.18 256.13,54.15 256.53,54.11 256.93,54.09 257.32,54.06 257.72,54.04 258.12,54.03 258.51,54.01 258.91,54 259.31,53.99 259.7,53.99 260.1,53.98 260.5,53.98 260.89,53.97 261.29,53.97 261.69,53.97" stroke-dasharray="none" stroke="rgb(31,120,180)" stroke-width="0.75" opacity="1" stroke-opacity="1" fill="none"/>
          </g>
          <g id="Fig:densplot_01.xyplot.lines.group.9.panel.1.1.1">
            <polyline id="Fig:densplot_01.xyplot.lines.group.9.panel.1.1.1.1" points="59.59,53.97 59.98,53.97 60.38,53.97 60.77,53.98 61.16,53.98 61.56,53.99 61.95,54 62.35,54.01 62.74,54.03 63.14,54.05 63.53,54.08 63.93,54.12 64.32,54.17 64.71,54.23 65.11,54.3 65.5,54.4 65.9,54.52 66.29,54.66 66.69,54.84 67.08,55.06 67.47,55.33 67.87,55.65 68.26,56.04 68.66,56.49 69.05,57.02 69.45,57.66 69.84,58.4 70.24,59.27 70.63,60.27 71.02,61.4 71.42,62.69 71.81,64.15 72.21,65.81 72.6,67.68 73,69.76 73.39,72.06 73.79,74.58 74.18,77.33 74.57,80.32 74.97,83.59 75.36,87.11 75.76,90.87 76.15,94.86 76.55,99.08 76.94,103.52 77.33,108.16 77.73,113.02 78.12,118.05 78.52,123.21 78.91,128.49 79.31,133.86 79.7,139.3 80.1,144.77 80.49,150.24 80.88,155.67 81.28,161.04 81.67,166.3 82.07,171.44 82.46,176.43 82.86,181.2 83.25,185.74 83.65,190.04 84.04,194.07 84.43,197.82 84.83,201.28 85.22,204.42 85.62,207.19 86.01,209.61 86.41,211.69 86.8,213.44 87.19,214.85 87.59,215.93 87.98,216.67 88.38,217.04 88.77,217.09 89.17,216.85 89.56,216.32 89.96,215.52 90.35,214.46 90.74,213.16 91.14,211.59 91.53,209.82 91.93,207.85 92.32,205.72 92.72,203.42 93.11,200.99 93.5,198.41 93.9,195.71 94.29,192.92 94.69,190.06 95.08,187.12 95.48,184.14 95.87,181.12 96.27,178.06 96.66,175 97.05,171.93 97.45,168.87 97.84,165.83 98.24,162.82 98.63,159.84 99.03,156.91 99.42,154.03 99.82,151.2 100.21,148.43 100.6,145.73 101,143.09 101.39,140.51 101.79,138.02 102.18,135.61 102.58,133.26 102.97,130.98 103.36,128.78 103.76,126.65 104.15,124.59 104.55,122.61 104.94,120.7 105.34,118.85 105.73,117.07 106.13,115.35 106.52,113.7 106.91,112.1 107.31,110.58 107.7,109.11 108.1,107.69 108.49,106.33 108.89,105.02 109.28,103.75 109.68,102.54 110.07,101.39 110.46,100.27 110.86,99.2 111.25,98.17 111.65,97.18 112.04,96.23 112.44,95.32 112.83,94.45 113.22,93.62 113.62,92.82 114.01,92.05 114.41,91.32 114.8,90.61 115.2,89.94 115.59,89.29 115.99,88.67 116.38,88.08 116.77,87.5 117.17,86.95 117.56,86.42 117.96,85.92 118.35,85.43 118.75,84.96 119.14,84.51 119.54,84.08 119.93,83.66 120.32,83.26 120.72,82.88 121.11,82.52 121.51,82.17 121.9,81.84 122.3,81.53 122.69,81.23 123.08,80.95 123.48,80.69 123.87,80.45 124.27,80.21 124.66,80 125.06,79.8 125.45,79.61 125.85,79.43 126.24,79.27 126.63,79.11 127.03,78.96 127.42,78.82 127.82,78.69 128.21,78.56 128.61,78.44 129,78.32 129.39,78.2 129.79,78.08 130.18,77.97 130.58,77.85 130.97,77.73 131.37,77.62 131.76,77.5 132.16,77.38 132.55,77.27 132.94,77.15 133.34,77.04 133.73,76.93 134.13,76.82 134.52,76.72 134.92,76.62 135.31,76.52 135.71,76.43 136.1,76.35 136.49,76.27 136.89,76.2 137.28,76.14 137.68,76.09 138.07,76.04 138.47,76.01 138.86,75.98 139.25,75.96 139.65,75.94 140.04,75.94 140.44,75.94 140.83,75.94 141.23,75.96 141.62,75.97 142.02,75.99 142.41,76.01 142.8,76.04 143.2,76.07 143.59,76.1 143.99,76.12 144.38,76.15 144.78,76.18 145.17,76.21 145.57,76.23 145.96,76.26 146.35,76.28 146.75,76.3 147.14,76.32 147.54,76.33 147.93,76.34 148.33,76.35 148.72,76.36 149.11,76.37 149.51,76.37 149.9,76.37 150.3,76.38 150.69,76.37 151.09,76.37 151.48,76.37 151.88,76.36 152.27,76.36 152.66,76.35 153.06,76.34 153.45,76.33 153.85,76.32 154.24,76.32 154.64,76.31 155.03,76.3 155.43,76.29 155.82,76.28 156.21,76.28 156.61,76.28 157,76.27 157.4,76.27 157.79,76.28 158.19,76.28 158.58,76.29 158.97,76.3 159.37,76.31 159.76,76.33 160.16,76.35 160.55,76.38 160.95,76.41 161.34,76.44 161.74,76.47 162.13,76.51 162.52,76.55 162.92,76.59 163.31,76.63 163.71,76.67 164.1,76.7 164.5,76.74 164.89,76.77 165.29,76.8 165.68,76.83 166.07,76.84 166.47,76.85 166.86,76.85 167.26,76.85 167.65,76.83 168.05,76.81 168.44,76.77 168.83,76.73 169.23,76.67 169.62,76.6 170.02,76.53 170.41,76.45 170.81,76.36 171.2,76.26 171.6,76.16 171.99,76.05 172.38,75.93 172.78,75.82 173.17,75.7 173.57,75.59 173.96,75.47 174.36,75.36 174.75,75.25 175.14,75.14 175.54,75.04 175.93,74.95 176.33,74.86 176.72,74.78 177.12,74.7 177.51,74.63 177.91,74.57 178.3,74.52 178.69,74.47 179.09,74.43 179.48,74.39 179.88,74.36 180.27,74.33 180.67,74.3 181.06,74.28 181.46,74.25 181.85,74.23 182.24,74.2 182.64,74.17 183.03,74.14 183.43,74.1 183.82,74.06 184.22,74.01 184.61,73.95 185,73.89 185.4,73.81 185.79,73.73 186.19,73.64 186.58,73.53 186.98,73.42 187.37,73.3 187.77,73.17 188.16,73.03 188.55,72.89 188.95,72.73 189.34,72.58 189.74,72.42 190.13,72.25 190.53,72.09 190.92,71.92 191.32,71.75 191.71,71.59 192.1,71.43 192.5,71.28 192.89,71.13 193.29,70.98 193.68,70.85 194.08,70.72 194.47,70.59 194.86,70.47 195.26,70.36 195.65,70.26 196.05,70.16 196.44,70.07 196.84,69.97 197.23,69.89 197.63,69.8 198.02,69.71 198.41,69.63 198.81,69.54 199.2,69.45 199.6,69.36 199.99,69.27 200.39,69.17 200.78,69.07 201.18,68.97 201.57,68.86 201.96,68.75 202.36,68.64 202.75,68.52 203.15,68.4 203.54,68.27 203.94,68.14 204.33,68.01 204.72,67.87 205.12,67.73 205.51,67.59 205.91,67.45 206.3,67.31 206.7,67.17 207.09,67.02 207.49,66.87 207.88,66.73 208.27,66.58 208.67,66.44 209.06,66.3 209.46,66.15 209.85,66.01 210.25,65.88 210.64,65.74 211.03,65.61 211.43,65.47 211.82,65.34 212.22,65.22 212.61,65.09 213.01,64.97 213.4,64.85 213.8,64.72 214.19,64.6 214.58,64.49 214.98,64.37 215.37,64.25 215.77,64.13 216.16,64.01 216.56,63.88 216.95,63.76 217.35,63.64 217.74,63.52 218.13,63.39 218.53,63.26 218.92,63.14 219.32,63.01 219.71,62.88 220.11,62.76 220.5,62.63 220.89,62.51 221.29,62.38 221.68,62.26 222.08,62.14 222.47,62.03 222.87,61.91 223.26,61.8 223.66,61.7 224.05,61.59 224.44,61.49 224.84,61.4 225.23,61.31 225.63,61.22 226.02,61.14 226.42,61.06 226.81,60.98 227.21,60.91 227.6,60.84 227.99,60.77 228.39,60.7 228.78,60.63 229.18,60.57 229.57,60.5 229.97,60.44 230.36,60.37 230.75,60.31 231.15,60.24 231.54,60.18 231.94,60.11 232.33,60.04 232.73,59.97 233.12,59.9 233.52,59.83 233.91,59.76 234.3,59.69 234.7,59.61 235.09,59.54 235.49,59.47 235.88,59.39 236.28,59.32 236.67,59.24 237.07,59.17 237.46,59.09 237.85,59.02 238.25,58.94 238.64,58.86 239.04,58.78 239.43,58.69 239.83,58.61 240.22,58.52 240.61,58.43 241.01,58.34 241.4,58.24 241.8,58.14 242.19,58.04 242.59,57.93 242.98,57.82 243.38,57.71 243.77,57.58 244.16,57.46 244.56,57.33 244.95,57.19 245.35,57.06 245.74,56.91 246.14,56.77 246.53,56.62 246.93,56.47 247.32,56.32 247.71,56.17 248.11,56.01 248.5,55.86 248.9,55.72 249.29,55.57 249.69,55.43 250.08,55.3 250.47,55.17 250.87,55.04 251.26,54.93 251.66,54.82 252.05,54.72 252.45,54.63 252.84,54.54 253.24,54.46 253.63,54.39 254.02,54.33 254.42,54.27 254.81,54.22 255.21,54.18 255.6,54.14 256,54.11 256.39,54.08 256.78,54.06 257.18,54.04 257.57,54.03 257.97,54.01 258.36,54 258.76,53.99 259.15,53.99 259.55,53.98 259.94,53.98 260.33,53.97 260.73,53.97 261.12,53.97" stroke-dasharray="none" stroke="rgb(31,120,180)" stroke-width="0.75" opacity="1" stroke-opacity="1" fill="none"/>
          </g>
          <g id="Fig:densplot_01.xyplot.lines.group.10.panel.1.1.1">
            <polyline id="Fig:densplot_01.xyplot.lines.group.10.panel.1.1.1.1" points="59.51,53.97 59.9,53.97 60.3,53.97 60.69,53.98 61.09,53.98 61.48,53.99 61.88,54 62.27,54.02 62.67,54.04 63.06,54.06 63.46,54.09 63.85,54.13 64.24,54.18 64.64,54.24 65.03,54.32 65.43,54.42 65.82,54.54 66.22,54.69 66.61,54.87 67.01,55.08 67.4,55.35 67.8,55.68 68.19,56.06 68.59,56.52 68.98,57.05 69.38,57.68 69.77,58.41 70.17,59.27 70.56,60.26 70.96,61.39 71.35,62.67 71.75,64.11 72.14,65.74 72.53,67.56 72.93,69.62 73.32,71.89 73.72,74.38 74.11,77.1 74.51,80.06 74.9,83.25 75.3,86.72 75.69,90.45 76.09,94.4 76.48,98.58 76.88,102.98 77.27,107.59 77.67,112.38 78.06,117.38 78.46,122.52 78.85,127.79 79.25,133.15 79.64,138.58 80.04,144.05 80.43,149.53 80.82,154.98 81.22,160.38 81.61,165.68 82.01,170.86 82.4,175.9 82.8,180.76 83.19,185.4 83.59,189.78 83.98,193.9 84.38,197.74 84.77,201.29 85.17,204.54 85.56,207.46 85.96,210.01 86.35,212.19 86.75,214.03 87.14,215.52 87.54,216.68 87.93,217.49 88.33,217.96 88.72,218.05 89.11,217.82 89.51,217.29 89.9,216.47 90.3,215.38 90.69,214.02 91.09,212.42 91.48,210.55 91.88,208.48 92.27,206.23 92.67,203.82 93.06,201.25 93.46,198.56 93.85,195.74 94.25,192.82 94.64,189.83 95.04,186.79 95.43,183.7 95.83,180.58 96.22,177.44 96.62,174.31 97.01,171.18 97.4,168.07 97.8,164.99 98.19,161.94 98.59,158.94 98.98,155.99 99.38,153.1 99.77,150.27 100.17,147.5 100.56,144.79 100.96,142.15 101.35,139.58 101.75,137.08 102.14,134.66 102.54,132.32 102.93,130.04 103.33,127.84 103.72,125.71 104.12,123.65 104.51,121.66 104.9,119.76 105.3,117.92 105.69,116.15 106.09,114.45 106.48,112.81 106.88,111.24 107.27,109.74 107.67,108.3 108.06,106.92 108.46,105.59 108.85,104.32 109.25,103.1 109.64,101.92 110.04,100.81 110.43,99.73 110.83,98.7 111.22,97.71 111.62,96.75 112.01,95.84 112.41,94.95 112.8,94.11 113.19,93.29 113.59,92.51 113.98,91.75 114.38,91.02 114.77,90.32 115.17,89.64 115.56,88.99 115.96,88.36 116.35,87.76 116.75,87.18 117.14,86.62 117.54,86.08 117.93,85.56 118.33,85.07 118.72,84.6 119.12,84.14 119.51,83.71 119.91,83.3 120.3,82.9 120.7,82.52 121.09,82.17 121.48,81.82 121.88,81.5 122.27,81.19 122.67,80.9 123.06,80.62 123.46,80.35 123.85,80.11 124.25,79.87 124.64,79.65 125.04,79.44 125.43,79.24 125.83,79.06 126.22,78.89 126.62,78.73 127.01,78.58 127.41,78.44 127.8,78.31 128.2,78.19 128.59,78.08 128.99,77.98 129.38,77.88 129.77,77.78 130.17,77.69 130.56,77.61 130.96,77.52 131.35,77.43 131.75,77.34 132.14,77.25 132.54,77.16 132.93,77.07 133.33,76.97 133.72,76.86 134.12,76.75 134.51,76.64 134.91,76.53 135.3,76.41 135.7,76.29 136.09,76.17 136.49,76.06 136.88,75.95 137.28,75.84 137.67,75.73 138.06,75.64 138.46,75.55 138.85,75.48 139.25,75.42 139.64,75.37 140.04,75.33 140.43,75.31 140.83,75.3 141.22,75.31 141.62,75.33 142.01,75.36 142.41,75.41 142.8,75.47 143.2,75.54 143.59,75.61 143.99,75.7 144.38,75.79 144.78,75.88 145.17,75.98 145.56,76.08 145.96,76.18 146.35,76.27 146.75,76.37 147.14,76.45 147.54,76.53 147.93,76.61 148.33,76.67 148.72,76.73 149.12,76.78 149.51,76.82 149.91,76.85 150.3,76.86 150.7,76.87 151.09,76.88 151.49,76.87 151.88,76.86 152.28,76.83 152.67,76.81 153.07,76.77 153.46,76.73 153.85,76.69 154.25,76.65 154.64,76.61 155.04,76.56 155.43,76.52 155.83,76.47 156.22,76.44 156.62,76.4 157.01,76.38 157.41,76.35 157.8,76.34 158.2,76.33 158.59,76.33 158.99,76.34 159.38,76.36 159.78,76.38 160.17,76.42 160.57,76.46 160.96,76.51 161.36,76.56 161.75,76.62 162.14,76.68 162.54,76.74 162.93,76.8 163.33,76.87 163.72,76.93 164.12,76.99 164.51,77.04 164.91,77.09 165.3,77.13 165.7,77.17 166.09,77.19 166.49,77.21 166.88,77.21 167.28,77.21 167.67,77.19 168.07,77.17 168.46,77.13 168.86,77.09 169.25,77.03 169.65,76.97 170.04,76.9 170.43,76.83 170.83,76.75 171.22,76.66 171.62,76.57 172.01,76.48 172.41,76.38 172.8,76.29 173.2,76.2 173.59,76.11 173.99,76.03 174.38,75.94 174.78,75.86 175.17,75.79 175.57,75.72 175.96,75.65 176.36,75.59 176.75,75.54 177.15,75.48 177.54,75.43 177.94,75.39 178.33,75.34 178.72,75.3 179.12,75.26 179.51,75.22 179.91,75.17 180.3,75.13 180.7,75.08 181.09,75.02 181.49,74.97 181.88,74.9 182.28,74.84 182.67,74.76 183.07,74.68 183.46,74.59 183.86,74.5 184.25,74.39 184.65,74.28 185.04,74.16 185.44,74.04 185.83,73.91 186.23,73.77 186.62,73.62 187.01,73.48 187.41,73.32 187.8,73.16 188.2,73 188.59,72.84 188.99,72.68 189.38,72.51 189.78,72.35 190.17,72.19 190.57,72.03 190.96,71.87 191.36,71.71 191.75,71.56 192.15,71.42 192.54,71.27 192.94,71.14 193.33,71 193.73,70.88 194.12,70.75 194.51,70.64 194.91,70.52 195.3,70.41 195.7,70.31 196.09,70.2 196.49,70.1 196.88,70 197.28,69.91 197.67,69.81 198.07,69.72 198.46,69.62 198.86,69.53 199.25,69.43 199.65,69.33 200.04,69.23 200.44,69.13 200.83,69.02 201.23,68.91 201.62,68.8 202.02,68.69 202.41,68.57 202.8,68.45 203.2,68.33 203.59,68.2 203.99,68.07 204.38,67.93 204.78,67.8 205.17,67.66 205.57,67.53 205.96,67.39 206.36,67.25 206.75,67.11 207.15,66.97 207.54,66.84 207.94,66.7 208.33,66.57 208.73,66.44 209.12,66.31 209.52,66.18 209.91,66.06 210.31,65.94 210.7,65.82 211.09,65.7 211.49,65.59 211.88,65.47 212.28,65.36 212.67,65.25 213.07,65.13 213.46,65.02 213.86,64.91 214.25,64.79 214.65,64.67 215.04,64.55 215.44,64.43 215.83,64.31 216.23,64.19 216.62,64.06 217.02,63.93 217.41,63.8 217.81,63.67 218.2,63.54 218.6,63.41 218.99,63.28 219.38,63.14 219.78,63.01 220.17,62.88 220.57,62.75 220.96,62.63 221.36,62.5 221.75,62.38 222.15,62.26 222.54,62.15 222.94,62.04 223.33,61.93 223.73,61.83 224.12,61.73 224.52,61.64 224.91,61.55 225.31,61.46 225.7,61.38 226.1,61.3 226.49,61.22 226.89,61.15 227.28,61.08 227.67,61.01 228.07,60.94 228.46,60.87 228.86,60.81 229.25,60.74 229.65,60.67 230.04,60.61 230.44,60.54 230.83,60.47 231.23,60.41 231.62,60.34 232.02,60.27 232.41,60.2 232.81,60.13 233.2,60.06 233.6,59.99 233.99,59.92 234.39,59.85 234.78,59.78 235.17,59.71 235.57,59.64 235.96,59.57 236.36,59.49 236.75,59.42 237.15,59.34 237.54,59.27 237.94,59.19 238.33,59.11 238.73,59.03 239.12,58.94 239.52,58.85 239.91,58.76 240.31,58.66 240.7,58.56 241.1,58.46 241.49,58.35 241.89,58.23 242.28,58.12 242.68,57.99 243.07,57.86 243.46,57.73 243.86,57.59 244.25,57.44 244.65,57.3 245.04,57.14 245.44,56.99 245.83,56.83 246.23,56.67 246.62,56.51 247.02,56.35 247.41,56.19 247.81,56.03 248.2,55.87 248.6,55.72 248.99,55.57 249.39,55.43 249.78,55.29 250.18,55.16 250.57,55.04 250.97,54.92 251.36,54.81 251.75,54.71 252.15,54.62 252.54,54.54 252.94,54.46 253.33,54.39 253.73,54.33 254.12,54.27 254.52,54.22 254.91,54.18 255.31,54.15 255.7,54.11 256.1,54.09 256.49,54.06 256.89,54.04 257.28,54.03 257.68,54.02 258.07,54 258.47,54 258.86,53.99 259.26,53.98 259.65,53.98 260.04,53.97 260.44,53.97 260.83,53.97 261.23,53.97" stroke-dasharray="none" stroke="rgb(31,120,180)" stroke-width="0.75" opacity="1" stroke-opacity="1" fill="none"/>
          </g>
          <g id="Fig:densplot_01.xyplot.lines.group.11.panel.1.1.1">
            <polyline id="Fig:densplot_01.xyplot.lines.group.11.panel.1.1.1.1" points="59.67,53.97 60.06,53.97 60.46,53.98 60.85,53.99 61.25,54 61.64,54.01 62.04,54.02 62.43,54.04 62.83,54.07 63.22,54.1 63.61,54.14 64.01,54.19 64.4,54.26 64.8,54.34 65.19,54.45 65.59,54.58 65.98,54.73 66.38,54.93 66.77,55.16 67.16,55.43 67.56,55.77 67.95,56.17 68.35,56.64 68.74,57.2 69.14,57.84 69.53,58.58 69.92,59.45 70.32,60.45 70.71,61.59 71.11,62.88 71.5,64.34 71.9,65.96 72.29,67.76 72.69,69.78 73.08,72.02 73.47,74.46 73.87,77.13 74.26,80.01 74.66,83.12 75.05,86.45 75.45,90.04 75.84,93.86 76.24,97.88 76.63,102.11 77.02,106.52 77.42,111.11 77.81,115.87 78.21,120.79 78.6,125.82 79,130.94 79.39,136.14 79.79,141.38 80.18,146.64 80.57,151.9 80.97,157.11 81.36,162.25 81.76,167.29 82.15,172.21 82.55,176.98 82.94,181.58 83.33,185.96 83.73,190.1 84.12,193.99 84.52,197.62 84.91,200.97 85.31,204.02 85.7,206.77 86.1,209.16 86.49,211.2 86.88,212.9 87.28,214.28 87.67,215.32 88.07,216.03 88.46,216.41 88.86,216.41 89.25,216.1 89.65,215.49 90.04,214.6 90.43,213.43 90.83,212.01 91.22,210.33 91.62,208.41 92.01,206.28 92.41,203.98 92.8,201.52 93.19,198.92 93.59,196.2 93.98,193.36 94.38,190.44 94.77,187.45 95.17,184.41 95.56,181.35 95.96,178.26 96.35,175.16 96.74,172.08 97.14,169.01 97.53,165.97 97.93,162.96 98.32,160 98.72,157.08 99.11,154.22 99.51,151.42 99.9,148.68 100.29,146.01 100.69,143.4 101.08,140.86 101.48,138.38 101.87,135.98 102.27,133.65 102.66,131.39 103.05,129.2 103.45,127.07 103.84,125.01 104.24,123.02 104.63,121.1 105.03,119.24 105.42,117.46 105.82,115.73 106.21,114.06 106.6,112.46 107,110.91 107.39,109.43 107.79,108.01 108.18,106.64 108.58,105.32 108.97,104.06 109.37,102.84 109.76,101.67 110.15,100.55 110.55,99.48 110.94,98.44 111.34,97.45 111.73,96.49 112.13,95.57 112.52,94.68 112.91,93.84 113.31,93.02 113.7,92.24 114.1,91.48 114.49,90.75 114.89,90.06 115.28,89.39 115.68,88.76 116.07,88.15 116.46,87.57 116.86,87.02 117.25,86.5 117.65,86 118.04,85.53 118.44,85.08 118.83,84.66 119.23,84.26 119.62,83.88 120.01,83.52 120.41,83.18 120.8,82.86 121.2,82.56 121.59,82.27 121.99,81.99 122.38,81.73 122.77,81.47 123.17,81.23 123.56,81 123.96,80.77 124.35,80.56 124.75,80.35 125.14,80.15 125.54,79.95 125.93,79.77 126.32,79.59 126.72,79.41 127.11,79.24 127.51,79.08 127.9,78.91 128.3,78.76 128.69,78.61 129.09,78.46 129.48,78.31 129.87,78.16 130.27,78.02 130.66,77.88 131.06,77.73 131.45,77.59 131.85,77.45 132.24,77.31 132.63,77.17 133.03,77.03 133.42,76.89 133.82,76.75 134.21,76.61 134.61,76.48 135,76.35 135.4,76.23 135.79,76.11 136.18,76 136.58,75.9 136.97,75.81 137.37,75.73 137.76,75.66 138.16,75.6 138.55,75.56 138.95,75.53 139.34,75.51 139.73,75.51 140.13,75.51 140.52,75.54 140.92,75.57 141.31,75.62 141.71,75.67 142.1,75.74 142.49,75.81 142.89,75.9 143.28,75.98 143.68,76.08 144.07,76.17 144.47,76.27 144.86,76.36 145.26,76.46 145.65,76.55 146.04,76.63 146.44,76.71 146.83,76.79 147.23,76.85 147.62,76.91 148.02,76.96 148.41,77 148.81,77.02 149.2,77.04 149.59,77.05 149.99,77.05 150.38,77.04 150.78,77.02 151.17,76.99 151.57,76.96 151.96,76.92 152.35,76.88 152.75,76.83 153.14,76.78 153.54,76.73 153.93,76.68 154.33,76.63 154.72,76.58 155.12,76.54 155.51,76.5 155.9,76.46 156.3,76.43 156.69,76.41 157.09,76.4 157.48,76.39 157.88,76.39 158.27,76.4 158.67,76.42 159.06,76.45 159.45,76.48 159.85,76.52 160.24,76.56 160.64,76.61 161.03,76.67 161.43,76.72 161.82,76.78 162.21,76.84 162.61,76.91 163,76.97 163.4,77.03 163.79,77.09 164.19,77.14 164.58,77.2 164.98,77.24 165.37,77.29 165.76,77.32 166.16,77.35 166.55,77.37 166.95,77.39 167.34,77.4 167.74,77.4 168.13,77.39 168.53,77.37 168.92,77.34 169.31,77.31 169.71,77.26 170.1,77.21 170.5,77.15 170.89,77.08 171.29,77.01 171.68,76.92 172.07,76.84 172.47,76.74 172.86,76.65 173.26,76.54 173.65,76.44 174.05,76.33 174.44,76.23 174.84,76.12 175.23,76.02 175.62,75.91 176.02,75.81 176.41,75.71 176.81,75.61 177.2,75.52 177.6,75.42 177.99,75.33 178.39,75.25 178.78,75.17 179.17,75.08 179.57,75 179.96,74.93 180.36,74.85 180.75,74.77 181.15,74.69 181.54,74.61 181.93,74.53 182.33,74.44 182.72,74.35 183.12,74.26 183.51,74.17 183.91,74.07 184.3,73.97 184.7,73.86 185.09,73.75 185.48,73.64 185.88,73.53 186.27,73.42 186.67,73.3 187.06,73.19 187.46,73.07 187.85,72.96 188.25,72.84 188.64,72.73 189.03,72.62 189.43,72.51 189.82,72.39 190.22,72.28 190.61,72.17 191.01,72.06 191.4,71.95 191.79,71.84 192.19,71.73 192.58,71.61 192.98,71.49 193.37,71.38 193.77,71.26 194.16,71.14 194.56,71.01 194.95,70.89 195.34,70.76 195.74,70.63 196.13,70.5 196.53,70.37 196.92,70.24 197.32,70.11 197.71,69.98 198.11,69.84 198.5,69.71 198.89,69.58 199.29,69.45 199.68,69.32 200.08,69.18 200.47,69.05 200.87,68.92 201.26,68.78 201.65,68.65 202.05,68.51 202.44,68.38 202.84,68.24 203.23,68.1 203.63,67.97 204.02,67.83 204.42,67.69 204.81,67.55 205.2,67.41 205.6,67.28 205.99,67.14 206.39,67.01 206.78,66.88 207.18,66.75 207.57,66.62 207.97,66.49 208.36,66.37 208.75,66.25 209.15,66.13 209.54,66.02 209.94,65.9 210.33,65.79 210.73,65.67 211.12,65.56 211.51,65.44 211.91,65.33 212.3,65.21 212.7,65.09 213.09,64.97 213.49,64.85 213.88,64.72 214.28,64.59 214.67,64.46 215.06,64.33 215.46,64.19 215.85,64.06 216.25,63.92 216.64,63.78 217.04,63.64 217.43,63.51 217.83,63.37 218.22,63.24 218.61,63.11 219.01,62.98 219.4,62.85 219.8,62.73 220.19,62.61 220.59,62.49 220.98,62.38 221.37,62.27 221.77,62.17 222.16,62.07 222.56,61.97 222.95,61.87 223.35,61.78 223.74,61.69 224.14,61.61 224.53,61.52 224.92,61.44 225.32,61.36 225.71,61.28 226.11,61.21 226.5,61.13 226.9,61.06 227.29,60.99 227.69,60.92 228.08,60.85 228.47,60.78 228.87,60.71 229.26,60.65 229.66,60.58 230.05,60.51 230.45,60.45 230.84,60.38 231.23,60.31 231.63,60.25 232.02,60.18 232.42,60.12 232.81,60.05 233.21,59.98 233.6,59.92 234,59.85 234.39,59.78 234.78,59.72 235.18,59.65 235.57,59.58 235.97,59.51 236.36,59.44 236.76,59.37 237.15,59.3 237.55,59.23 237.94,59.15 238.33,59.08 238.73,59 239.12,58.92 239.52,58.83 239.91,58.74 240.31,58.65 240.7,58.55 241.1,58.45 241.49,58.34 241.88,58.23 242.28,58.11 242.67,57.99 243.07,57.86 243.46,57.72 243.86,57.58 244.25,57.44 244.64,57.29 245.04,57.13 245.43,56.98 245.83,56.82 246.22,56.66 246.62,56.49 247.01,56.33 247.41,56.17 247.8,56.01 248.19,55.85 248.59,55.7 248.98,55.55 249.38,55.41 249.77,55.27 250.17,55.14 250.56,55.02 250.96,54.9 251.35,54.79 251.74,54.69 252.14,54.6 252.53,54.52 252.93,54.44 253.32,54.37 253.72,54.31 254.11,54.26 254.5,54.21 254.9,54.17 255.29,54.14 255.69,54.11 256.08,54.08 256.48,54.06 256.87,54.04 257.27,54.02 257.66,54.01 258.05,54 258.45,53.99 258.84,53.99 259.24,53.98 259.63,53.98 260.03,53.97 260.42,53.97 260.82,53.97 261.21,53.97" stroke-dasharray="none" stroke="rgb(31,120,180)" stroke-width="0.75" opacity="1" stroke-opacity="1" fill="none"/>
          </g>
          <g id="Fig:densplot_01.xyplot.lines.group.12.panel.1.1.1">
            <polyline id="Fig:densplot_01.xyplot.lines.group.12.panel.1.1.1.1" points="59.65,53.97 60.04,53.97 60.44,53.97 60.83,53.98 61.23,53.99 61.62,54 62.02,54.01 62.41,54.02 62.8,54.04 63.2,54.07 63.59,54.1 63.99,54.14 64.38,54.2 64.77,54.27 65.17,54.36 65.56,54.46 65.96,54.6 66.35,54.76 66.75,54.95 67.14,55.2 67.53,55.5 67.93,55.85 68.32,56.27 68.72,56.77 69.11,57.35 69.51,58.02 69.9,58.83 70.29,59.75 70.69,60.81 71.08,62.02 71.48,63.38 71.87,64.92 72.27,66.64 72.66,68.59 73.05,70.74 73.45,73.11 73.84,75.7 74.24,78.51 74.63,81.55 75.03,84.86 75.42,88.41 75.81,92.19 76.21,96.2 76.6,100.41 77,104.83 77.39,109.44 77.78,114.25 78.18,119.22 78.57,124.31 78.97,129.51 79.36,134.79 79.76,140.13 80.15,145.5 80.54,150.87 80.94,156.2 81.33,161.47 81.73,166.64 82.12,171.69 82.52,176.6 82.91,181.32 83.3,185.79 83.7,190.04 84.09,194.03 84.49,197.75 84.88,201.18 85.28,204.3 85.67,207.08 86.06,209.49 86.46,211.57 86.85,213.31 87.25,214.72 87.64,215.78 88.04,216.52 88.43,216.89 88.82,216.93 89.22,216.66 89.61,216.1 90.01,215.27 90.4,214.18 90.8,212.83 91.19,211.22 91.58,209.4 91.98,207.38 92.37,205.19 92.77,202.83 93.16,200.34 93.55,197.71 93.95,194.96 94.34,192.11 94.74,189.19 95.13,186.21 95.53,183.18 95.92,180.12 96.31,177.03 96.71,173.93 97.1,170.83 97.5,167.75 97.89,164.7 98.29,161.67 98.68,158.68 99.07,155.75 99.47,152.87 99.86,150.05 100.26,147.29 100.65,144.6 101.05,141.98 101.44,139.43 101.83,136.96 102.23,134.57 102.62,132.26 103.02,130.01 103.41,127.84 103.81,125.74 104.2,123.71 104.59,121.77 104.99,119.89 105.38,118.08 105.78,116.34 106.17,114.66 106.56,113.04 106.96,111.49 107.35,110 107.75,108.57 108.14,107.19 108.54,105.87 108.93,104.6 109.32,103.37 109.72,102.2 110.11,101.08 110.51,100 110.9,98.96 111.3,97.96 111.69,97 112.08,96.08 112.48,95.19 112.87,94.34 113.27,93.53 113.66,92.74 114.06,91.99 114.45,91.26 114.84,90.57 115.24,89.9 115.63,89.26 116.03,88.64 116.42,88.05 116.82,87.49 117.21,86.94 117.6,86.42 118,85.93 118.39,85.45 118.79,85 119.18,84.57 119.58,84.16 119.97,83.77 120.36,83.39 120.76,83.05 121.15,82.71 121.55,82.4 121.94,82.1 122.33,81.83 122.73,81.56 123.12,81.32 123.52,81.08 123.91,80.87 124.31,80.66 124.7,80.46 125.09,80.28 125.49,80.1 125.88,79.93 126.28,79.77 126.67,79.61 127.07,79.45 127.46,79.3 127.85,79.14 128.25,78.99 128.64,78.84 129.04,78.69 129.43,78.54 129.83,78.39 130.22,78.23 130.61,78.08 131.01,77.93 131.4,77.77 131.8,77.63 132.19,77.48 132.59,77.34 132.98,77.2 133.37,77.07 133.77,76.94 134.16,76.83 134.56,76.72 134.95,76.62 135.34,76.54 135.74,76.46 136.13,76.39 136.53,76.34 136.92,76.3 137.32,76.26 137.71,76.24 138.1,76.22 138.5,76.21 138.89,76.21 139.29,76.21 139.68,76.22 140.08,76.23 140.47,76.24 140.86,76.26 141.26,76.27 141.65,76.28 142.05,76.3 142.44,76.31 142.84,76.32 143.23,76.32 143.62,76.33 144.02,76.33 144.41,76.33 144.81,76.33 145.2,76.33 145.6,76.33 145.99,76.32 146.38,76.32 146.78,76.31 147.17,76.3 147.57,76.29 147.96,76.28 148.35,76.28 148.75,76.27 149.14,76.26 149.54,76.25 149.93,76.24 150.33,76.24 150.72,76.23 151.11,76.22 151.51,76.22 151.9,76.22 152.3,76.22 152.69,76.22 153.09,76.22 153.48,76.23 153.87,76.23 154.27,76.25 154.66,76.26 155.06,76.28 155.45,76.3 155.85,76.33 156.24,76.35 156.63,76.39 157.03,76.42 157.42,76.46 157.82,76.5 158.21,76.55 158.61,76.6 159,76.65 159.39,76.7 159.79,76.75 160.18,76.81 160.58,76.87 160.97,76.92 161.37,76.98 161.76,77.03 162.15,77.08 162.55,77.13 162.94,77.18 163.34,77.22 163.73,77.25 164.12,77.28 164.52,77.31 164.91,77.33 165.31,77.34 165.7,77.34 166.1,77.34 166.49,77.33 166.88,77.31 167.28,77.28 167.67,77.25 168.07,77.21 168.46,77.16 168.86,77.11 169.25,77.05 169.64,76.98 170.04,76.91 170.43,76.83 170.83,76.74 171.22,76.66 171.62,76.57 172.01,76.47 172.4,76.37 172.8,76.27 173.19,76.17 173.59,76.06 173.98,75.96 174.38,75.85 174.77,75.74 175.16,75.63 175.56,75.53 175.95,75.42 176.35,75.32 176.74,75.22 177.13,75.12 177.53,75.02 177.92,74.93 178.32,74.84 178.71,74.75 179.11,74.67 179.5,74.59 179.89,74.51 180.29,74.43 180.68,74.36 181.08,74.29 181.47,74.22 181.87,74.15 182.26,74.08 182.65,74.01 183.05,73.94 183.44,73.86 183.84,73.79 184.23,73.71 184.63,73.63 185.02,73.55 185.41,73.46 185.81,73.37 186.2,73.27 186.6,73.17 186.99,73.06 187.39,72.95 187.78,72.84 188.17,72.72 188.57,72.6 188.96,72.48 189.36,72.35 189.75,72.23 190.14,72.1 190.54,71.97 190.93,71.84 191.33,71.71 191.72,71.58 192.12,71.45 192.51,71.33 192.9,71.2 193.3,71.08 193.69,70.95 194.09,70.83 194.48,70.71 194.88,70.59 195.27,70.47 195.66,70.35 196.06,70.23 196.45,70.11 196.85,69.99 197.24,69.87 197.64,69.75 198.03,69.63 198.42,69.5 198.82,69.38 199.21,69.25 199.61,69.12 200,68.98 200.4,68.85 200.79,68.71 201.18,68.57 201.58,68.43 201.97,68.29 202.37,68.15 202.76,68.01 203.16,67.86 203.55,67.72 203.94,67.58 204.34,67.44 204.73,67.31 205.13,67.18 205.52,67.05 205.91,66.92 206.31,66.8 206.7,66.68 207.1,66.57 207.49,66.46 207.89,66.35 208.28,66.25 208.67,66.15 209.07,66.06 209.46,65.96 209.86,65.87 210.25,65.78 210.65,65.68 211.04,65.59 211.43,65.49 211.83,65.39 212.22,65.29 212.62,65.18 213.01,65.07 213.41,64.96 213.8,64.84 214.19,64.71 214.59,64.58 214.98,64.45 215.38,64.31 215.77,64.17 216.17,64.02 216.56,63.88 216.95,63.73 217.35,63.58 217.74,63.42 218.14,63.27 218.53,63.12 218.92,62.97 219.32,62.82 219.71,62.68 220.11,62.54 220.5,62.4 220.9,62.27 221.29,62.15 221.68,62.03 222.08,61.91 222.47,61.8 222.87,61.7 223.26,61.6 223.66,61.5 224.05,61.41 224.44,61.33 224.84,61.25 225.23,61.18 225.63,61.1 226.02,61.03 226.42,60.97 226.81,60.9 227.2,60.84 227.6,60.78 227.99,60.71 228.39,60.65 228.78,60.59 229.18,60.53 229.57,60.47 229.96,60.41 230.36,60.35 230.75,60.28 231.15,60.22 231.54,60.16 231.93,60.1 232.33,60.04 232.72,59.97 233.12,59.91 233.51,59.85 233.91,59.79 234.3,59.73 234.69,59.66 235.09,59.6 235.48,59.54 235.88,59.47 236.27,59.41 236.67,59.34 237.06,59.27 237.45,59.21 237.85,59.13 238.24,59.06 238.64,58.98 239.03,58.9 239.43,58.82 239.82,58.74 240.21,58.65 240.61,58.55 241,58.45 241.4,58.35 241.79,58.24 242.19,58.13 242.58,58.01 242.97,57.88 243.37,57.75 243.76,57.62 244.16,57.48 244.55,57.33 244.95,57.19 245.34,57.03 245.73,56.88 246.13,56.72 246.52,56.56 246.92,56.4 247.31,56.24 247.7,56.08 248.1,55.92 248.49,55.77 248.89,55.62 249.28,55.47 249.68,55.33 250.07,55.2 250.46,55.07 250.86,54.95 251.25,54.84 251.65,54.73 252.04,54.64 252.44,54.55 252.83,54.47 253.22,54.4 253.62,54.33 254.01,54.28 254.41,54.23 254.8,54.18 255.2,54.15 255.59,54.11 255.98,54.09 256.38,54.06 256.77,54.04 257.17,54.03 257.56,54.01 257.96,54 258.35,53.99 258.74,53.99 259.14,53.98 259.53,53.98 259.93,53.97 260.32,53.97 260.71,53.97 261.11,53.97" stroke-dasharray="none" stroke="rgb(31,120,180)" stroke-width="0.75" opacity="1" stroke-opacity="1" fill="none"/>
          </g>
        </g>
        <g id="Fig:densplot_01.panel.1.1.off.vp.2">
          <g id="Fig:densplot_01.border.panel.1.1.1">
            <rect id="Fig:densplot_01.border.panel.1.1.1.1" x="44.8" y="42.19" width="231.2" height="191.81" transform="" stroke="rgb(0,0,0)" stroke-dasharray="none" stroke-width="0.75" opacity="1" fill="none" stroke-opacity="1" fill-opacity="0"/>
          </g>
        </g>
        <g id="Fig:densplot_01..1"/>
      </g>
    </g>
  </g>
</svg>